<?xml version="1.0" encoding="utf-8"?>
<svg xmlns="http://www.w3.org/2000/svg" xmlns:xlink="http://www.w3.org/1999/xlink" width="600" height="400" viewBox="0 0 2400 1600">
<defs>
  <clipPath id="clip800">
    <rect x="0" y="0" width="2400" height="1600"/>
  </clipPath>
</defs>
<path clip-path="url(#clip800)" d="
M0 1600 L2400 1600 L2400 0 L0 0  Z
  " fill="#ffffff" fill-rule="evenodd" fill-opacity="1"/>
<defs>
  <clipPath id="clip801">
    <rect x="480" y="0" width="1681" height="1600"/>
  </clipPath>
</defs>
<path clip-path="url(#clip800)" d="
M238.13 1423.18 L2352.76 1423.18 L2352.76 123.472 L238.13 123.472  Z
  " fill="#ffffff" fill-rule="evenodd" fill-opacity="1"/>
<defs>
  <clipPath id="clip802">
    <rect x="238" y="123" width="2116" height="1301"/>
  </clipPath>
</defs>
<polyline clip-path="url(#clip802)" style="stroke:#000000; stroke-width:2; stroke-opacity:0.1; fill:none" points="
  238.13,1423.18 238.13,123.472 
  "/>
<polyline clip-path="url(#clip802)" style="stroke:#000000; stroke-width:2; stroke-opacity:0.1; fill:none" points="
  829.056,1423.18 829.056,123.472 
  "/>
<polyline clip-path="url(#clip802)" style="stroke:#000000; stroke-width:2; stroke-opacity:0.1; fill:none" points="
  1419.98,1423.18 1419.98,123.472 
  "/>
<polyline clip-path="url(#clip802)" style="stroke:#000000; stroke-width:2; stroke-opacity:0.1; fill:none" points="
  2010.91,1423.18 2010.91,123.472 
  "/>
<polyline clip-path="url(#clip802)" style="stroke:#000000; stroke-width:2; stroke-opacity:0.1; fill:none" points="
  238.13,1423.18 2352.76,1423.18 
  "/>
<polyline clip-path="url(#clip802)" style="stroke:#000000; stroke-width:2; stroke-opacity:0.1; fill:none" points="
  238.13,1127.79 2352.76,1127.79 
  "/>
<polyline clip-path="url(#clip802)" style="stroke:#000000; stroke-width:2; stroke-opacity:0.1; fill:none" points="
  238.13,832.404 2352.76,832.404 
  "/>
<polyline clip-path="url(#clip802)" style="stroke:#000000; stroke-width:2; stroke-opacity:0.1; fill:none" points="
  238.13,537.015 2352.76,537.015 
  "/>
<polyline clip-path="url(#clip802)" style="stroke:#000000; stroke-width:2; stroke-opacity:0.1; fill:none" points="
  238.13,241.627 2352.76,241.627 
  "/>
<polyline clip-path="url(#clip800)" style="stroke:#000000; stroke-width:4; stroke-opacity:1; fill:none" points="
  238.13,1423.18 2352.76,1423.18 
  "/>
<polyline clip-path="url(#clip800)" style="stroke:#000000; stroke-width:4; stroke-opacity:1; fill:none" points="
  238.13,1423.18 238.13,123.472 
  "/>
<polyline clip-path="url(#clip800)" style="stroke:#000000; stroke-width:4; stroke-opacity:1; fill:none" points="
  238.13,1423.18 238.13,1407.58 
  "/>
<polyline clip-path="url(#clip800)" style="stroke:#000000; stroke-width:4; stroke-opacity:1; fill:none" points="
  829.056,1423.18 829.056,1407.58 
  "/>
<polyline clip-path="url(#clip800)" style="stroke:#000000; stroke-width:4; stroke-opacity:1; fill:none" points="
  1419.98,1423.18 1419.98,1407.58 
  "/>
<polyline clip-path="url(#clip800)" style="stroke:#000000; stroke-width:4; stroke-opacity:1; fill:none" points="
  2010.91,1423.18 2010.91,1407.58 
  "/>
<polyline clip-path="url(#clip800)" style="stroke:#000000; stroke-width:4; stroke-opacity:1; fill:none" points="
  238.13,1423.18 263.506,1423.18 
  "/>
<polyline clip-path="url(#clip800)" style="stroke:#000000; stroke-width:4; stroke-opacity:1; fill:none" points="
  238.13,1127.79 263.506,1127.79 
  "/>
<polyline clip-path="url(#clip800)" style="stroke:#000000; stroke-width:4; stroke-opacity:1; fill:none" points="
  238.13,832.404 263.506,832.404 
  "/>
<polyline clip-path="url(#clip800)" style="stroke:#000000; stroke-width:4; stroke-opacity:1; fill:none" points="
  238.13,537.015 263.506,537.015 
  "/>
<polyline clip-path="url(#clip800)" style="stroke:#000000; stroke-width:4; stroke-opacity:1; fill:none" points="
  238.13,241.627 263.506,241.627 
  "/>
<path clip-path="url(#clip800)" d="M 0 0 M238.13 1445.17 Q234.519 1445.17 232.69 1448.74 Q230.885 1452.28 230.885 1459.41 Q230.885 1466.51 232.69 1470.08 Q234.519 1473.62 238.13 1473.62 Q241.764 1473.62 243.57 1470.08 Q245.399 1466.51 245.399 1459.41 Q245.399 1452.28 243.57 1448.74 Q241.764 1445.17 238.13 1445.17 M238.13 1441.47 Q243.94 1441.47 246.996 1446.07 Q250.074 1450.66 250.074 1459.41 Q250.074 1468.13 246.996 1472.74 Q243.94 1477.32 238.13 1477.32 Q232.32 1477.32 229.241 1472.74 Q226.186 1468.13 226.186 1459.41 Q226.186 1450.66 229.241 1446.07 Q232.32 1441.47 238.13 1441.47 Z" fill="#000000" fill-rule="evenodd" fill-opacity="1" /><path clip-path="url(#clip800)" d="M 0 0 M823.709 1472.72 L840.028 1472.72 L840.028 1476.65 L818.084 1476.65 L818.084 1472.72 Q820.746 1469.96 825.329 1465.33 Q829.936 1460.68 831.116 1459.34 Q833.362 1456.81 834.241 1455.08 Q835.144 1453.32 835.144 1451.63 Q835.144 1448.87 833.2 1447.14 Q831.278 1445.4 828.177 1445.4 Q825.978 1445.4 823.524 1446.17 Q821.093 1446.93 818.316 1448.48 L818.316 1443.76 Q821.14 1442.62 823.593 1442.05 Q826.047 1441.47 828.084 1441.47 Q833.454 1441.47 836.649 1444.15 Q839.843 1446.84 839.843 1451.33 Q839.843 1453.46 839.033 1455.38 Q838.246 1457.28 836.14 1459.87 Q835.561 1460.54 832.459 1463.76 Q829.357 1466.95 823.709 1472.72 Z" fill="#000000" fill-rule="evenodd" fill-opacity="1" /><path clip-path="url(#clip800)" d="M 0 0 M1422.99 1446.17 L1411.19 1464.61 L1422.99 1464.61 L1422.99 1446.17 M1421.76 1442.09 L1427.64 1442.09 L1427.64 1464.61 L1432.57 1464.61 L1432.57 1468.5 L1427.64 1468.5 L1427.64 1476.65 L1422.99 1476.65 L1422.99 1468.5 L1407.39 1468.5 L1407.39 1463.99 L1421.76 1442.09 Z" fill="#000000" fill-rule="evenodd" fill-opacity="1" /><path clip-path="url(#clip800)" d="M 0 0 M2011.31 1457.51 Q2008.17 1457.51 2006.31 1459.66 Q2004.49 1461.81 2004.49 1465.56 Q2004.49 1469.29 2006.31 1471.47 Q2008.17 1473.62 2011.31 1473.62 Q2014.46 1473.62 2016.29 1471.47 Q2018.14 1469.29 2018.14 1465.56 Q2018.14 1461.81 2016.29 1459.66 Q2014.46 1457.51 2011.31 1457.51 M2020.6 1442.86 L2020.6 1447.11 Q2018.84 1446.28 2017.03 1445.84 Q2015.25 1445.4 2013.49 1445.4 Q2008.86 1445.4 2006.41 1448.53 Q2003.98 1451.65 2003.63 1457.97 Q2004.99 1455.96 2007.05 1454.89 Q2009.11 1453.8 2011.59 1453.8 Q2016.8 1453.8 2019.81 1456.98 Q2022.84 1460.12 2022.84 1465.56 Q2022.84 1470.89 2019.69 1474.11 Q2016.55 1477.32 2011.31 1477.32 Q2005.32 1477.32 2002.15 1472.74 Q1998.98 1468.13 1998.98 1459.41 Q1998.98 1451.21 2002.86 1446.35 Q2006.75 1441.47 2013.3 1441.47 Q2015.06 1441.47 2016.85 1441.81 Q2018.65 1442.16 2020.6 1442.86 Z" fill="#000000" fill-rule="evenodd" fill-opacity="1" /><path clip-path="url(#clip800)" d="M 0 0 M138.205 1408.98 Q134.593 1408.98 132.765 1412.54 Q130.959 1416.08 130.959 1423.21 Q130.959 1430.32 132.765 1433.89 Q134.593 1437.43 138.205 1437.43 Q141.839 1437.43 143.644 1433.89 Q145.473 1430.32 145.473 1423.21 Q145.473 1416.08 143.644 1412.54 Q141.839 1408.98 138.205 1408.98 M138.205 1405.27 Q144.015 1405.27 147.07 1409.88 Q150.149 1414.46 150.149 1423.21 Q150.149 1431.94 147.07 1436.55 Q144.015 1441.13 138.205 1441.13 Q132.394 1441.13 129.316 1436.55 Q126.26 1431.94 126.26 1423.21 Q126.26 1414.46 129.316 1409.88 Q132.394 1405.27 138.205 1405.27 Z" fill="#000000" fill-rule="evenodd" fill-opacity="1" /><path clip-path="url(#clip800)" d="M 0 0 M155.218 1434.58 L160.103 1434.58 L160.103 1440.46 L155.218 1440.46 L155.218 1434.58 Z" fill="#000000" fill-rule="evenodd" fill-opacity="1" /><path clip-path="url(#clip800)" d="M 0 0 M175.172 1408.98 Q171.561 1408.98 169.732 1412.54 Q167.927 1416.08 167.927 1423.21 Q167.927 1430.32 169.732 1433.89 Q171.561 1437.43 175.172 1437.43 Q178.806 1437.43 180.612 1433.89 Q182.44 1430.32 182.44 1423.21 Q182.44 1416.08 180.612 1412.54 Q178.806 1408.98 175.172 1408.98 M175.172 1405.27 Q180.982 1405.27 184.038 1409.88 Q187.116 1414.46 187.116 1423.21 Q187.116 1431.94 184.038 1436.55 Q180.982 1441.13 175.172 1441.13 Q169.362 1441.13 166.283 1436.55 Q163.228 1431.94 163.228 1423.21 Q163.228 1414.46 166.283 1409.88 Q169.362 1405.27 175.172 1405.27 Z" fill="#000000" fill-rule="evenodd" fill-opacity="1" /><path clip-path="url(#clip800)" d="M 0 0 M202.186 1408.98 Q198.575 1408.98 196.746 1412.54 Q194.94 1416.08 194.94 1423.21 Q194.94 1430.32 196.746 1433.89 Q198.575 1437.43 202.186 1437.43 Q205.82 1437.43 207.625 1433.89 Q209.454 1430.32 209.454 1423.21 Q209.454 1416.08 207.625 1412.54 Q205.82 1408.98 202.186 1408.98 M202.186 1405.27 Q207.996 1405.27 211.051 1409.88 Q214.13 1414.46 214.13 1423.21 Q214.13 1431.94 211.051 1436.55 Q207.996 1441.13 202.186 1441.13 Q196.376 1441.13 193.297 1436.55 Q190.241 1431.94 190.241 1423.21 Q190.241 1414.46 193.297 1409.88 Q196.376 1405.27 202.186 1405.27 Z" fill="#000000" fill-rule="evenodd" fill-opacity="1" /><path clip-path="url(#clip800)" d="M 0 0 M140.797 1113.59 Q137.186 1113.59 135.357 1117.16 Q133.552 1120.7 133.552 1127.83 Q133.552 1134.93 135.357 1138.5 Q137.186 1142.04 140.797 1142.04 Q144.431 1142.04 146.237 1138.5 Q148.066 1134.93 148.066 1127.83 Q148.066 1120.7 146.237 1117.16 Q144.431 1113.59 140.797 1113.59 M140.797 1109.89 Q146.607 1109.89 149.663 1114.49 Q152.741 1119.08 152.741 1127.83 Q152.741 1136.55 149.663 1141.16 Q146.607 1145.74 140.797 1145.74 Q134.987 1145.74 131.908 1141.16 Q128.853 1136.55 128.853 1127.83 Q128.853 1119.08 131.908 1114.49 Q134.987 1109.89 140.797 1109.89 Z" fill="#000000" fill-rule="evenodd" fill-opacity="1" /><path clip-path="url(#clip800)" d="M 0 0 M157.811 1139.19 L162.695 1139.19 L162.695 1145.07 L157.811 1145.07 L157.811 1139.19 Z" fill="#000000" fill-rule="evenodd" fill-opacity="1" /><path clip-path="url(#clip800)" d="M 0 0 M171.792 1141.14 L188.112 1141.14 L188.112 1145.07 L166.167 1145.07 L166.167 1141.14 Q168.829 1138.38 173.413 1133.75 Q178.019 1129.1 179.2 1127.76 Q181.445 1125.23 182.325 1123.5 Q183.227 1121.74 183.227 1120.05 Q183.227 1117.29 181.283 1115.56 Q179.362 1113.82 176.26 1113.82 Q174.061 1113.82 171.607 1114.59 Q169.177 1115.35 166.399 1116.9 L166.399 1112.18 Q169.223 1111.04 171.677 1110.47 Q174.13 1109.89 176.167 1109.89 Q181.538 1109.89 184.732 1112.57 Q187.926 1115.26 187.926 1119.75 Q187.926 1121.88 187.116 1123.8 Q186.329 1125.7 184.223 1128.29 Q183.644 1128.96 180.542 1132.18 Q177.44 1135.37 171.792 1141.14 Z" fill="#000000" fill-rule="evenodd" fill-opacity="1" /><path clip-path="url(#clip800)" d="M 0 0 M193.227 1110.51 L211.584 1110.51 L211.584 1114.45 L197.51 1114.45 L197.51 1122.92 Q198.528 1122.57 199.547 1122.41 Q200.565 1122.22 201.584 1122.22 Q207.371 1122.22 210.75 1125.4 Q214.13 1128.57 214.13 1133.98 Q214.13 1139.56 210.658 1142.66 Q207.186 1145.74 200.866 1145.74 Q198.69 1145.74 196.422 1145.37 Q194.176 1145 191.769 1144.26 L191.769 1139.56 Q193.852 1140.7 196.075 1141.25 Q198.297 1141.81 200.774 1141.81 Q204.778 1141.81 207.116 1139.7 Q209.454 1137.59 209.454 1133.98 Q209.454 1130.37 207.116 1128.27 Q204.778 1126.16 200.774 1126.16 Q198.899 1126.16 197.024 1126.58 Q195.172 1126.99 193.227 1127.87 L193.227 1110.51 Z" fill="#000000" fill-rule="evenodd" fill-opacity="1" /><path clip-path="url(#clip800)" d="M 0 0 M139.2 818.202 Q135.589 818.202 133.76 821.767 Q131.955 825.309 131.955 832.438 Q131.955 839.545 133.76 843.11 Q135.589 846.651 139.2 846.651 Q142.834 846.651 144.64 843.11 Q146.468 839.545 146.468 832.438 Q146.468 825.309 144.64 821.767 Q142.834 818.202 139.2 818.202 M139.2 814.499 Q145.01 814.499 148.066 819.105 Q151.144 823.688 151.144 832.438 Q151.144 841.165 148.066 845.772 Q145.01 850.355 139.2 850.355 Q133.39 850.355 130.311 845.772 Q127.256 841.165 127.256 832.438 Q127.256 823.688 130.311 819.105 Q133.39 814.499 139.2 814.499 Z" fill="#000000" fill-rule="evenodd" fill-opacity="1" /><path clip-path="url(#clip800)" d="M 0 0 M156.214 843.804 L161.098 843.804 L161.098 849.684 L156.214 849.684 L156.214 843.804 Z" fill="#000000" fill-rule="evenodd" fill-opacity="1" /><path clip-path="url(#clip800)" d="M 0 0 M166.214 815.124 L184.57 815.124 L184.57 819.059 L170.496 819.059 L170.496 827.531 Q171.515 827.184 172.533 827.022 Q173.552 826.837 174.57 826.837 Q180.357 826.837 183.737 830.008 Q187.116 833.179 187.116 838.596 Q187.116 844.174 183.644 847.276 Q180.172 850.355 173.852 850.355 Q171.677 850.355 169.408 849.985 Q167.163 849.614 164.755 848.873 L164.755 844.174 Q166.839 845.309 169.061 845.864 Q171.283 846.42 173.76 846.42 Q177.765 846.42 180.102 844.313 Q182.44 842.207 182.44 838.596 Q182.44 834.985 180.102 832.878 Q177.765 830.772 173.76 830.772 Q171.885 830.772 170.01 831.188 Q168.158 831.605 166.214 832.485 L166.214 815.124 Z" fill="#000000" fill-rule="evenodd" fill-opacity="1" /><path clip-path="url(#clip800)" d="M 0 0 M202.186 818.202 Q198.575 818.202 196.746 821.767 Q194.94 825.309 194.94 832.438 Q194.94 839.545 196.746 843.11 Q198.575 846.651 202.186 846.651 Q205.82 846.651 207.625 843.11 Q209.454 839.545 209.454 832.438 Q209.454 825.309 207.625 821.767 Q205.82 818.202 202.186 818.202 M202.186 814.499 Q207.996 814.499 211.051 819.105 Q214.13 823.688 214.13 832.438 Q214.13 841.165 211.051 845.772 Q207.996 850.355 202.186 850.355 Q196.376 850.355 193.297 845.772 Q190.241 841.165 190.241 832.438 Q190.241 823.688 193.297 819.105 Q196.376 814.499 202.186 814.499 Z" fill="#000000" fill-rule="evenodd" fill-opacity="1" /><path clip-path="url(#clip800)" d="M 0 0 M140.103 522.814 Q136.492 522.814 134.663 526.379 Q132.857 529.921 132.857 537.05 Q132.857 544.157 134.663 547.721 Q136.492 551.263 140.103 551.263 Q143.737 551.263 145.542 547.721 Q147.371 544.157 147.371 537.05 Q147.371 529.921 145.542 526.379 Q143.737 522.814 140.103 522.814 M140.103 519.11 Q145.913 519.11 148.968 523.717 Q152.047 528.3 152.047 537.05 Q152.047 545.777 148.968 550.383 Q145.913 554.967 140.103 554.967 Q134.293 554.967 131.214 550.383 Q128.158 545.777 128.158 537.05 Q128.158 528.3 131.214 523.717 Q134.293 519.11 140.103 519.11 Z" fill="#000000" fill-rule="evenodd" fill-opacity="1" /><path clip-path="url(#clip800)" d="M 0 0 M157.116 548.416 L162.001 548.416 L162.001 554.295 L157.116 554.295 L157.116 548.416 Z" fill="#000000" fill-rule="evenodd" fill-opacity="1" /><path clip-path="url(#clip800)" d="M 0 0 M165.89 519.735 L188.112 519.735 L188.112 521.726 L175.565 554.295 L170.681 554.295 L182.487 523.671 L165.89 523.671 L165.89 519.735 Z" fill="#000000" fill-rule="evenodd" fill-opacity="1" /><path clip-path="url(#clip800)" d="M 0 0 M193.227 519.735 L211.584 519.735 L211.584 523.671 L197.51 523.671 L197.51 532.143 Q198.528 531.796 199.547 531.634 Q200.565 531.448 201.584 531.448 Q207.371 531.448 210.75 534.62 Q214.13 537.791 214.13 543.208 Q214.13 548.786 210.658 551.888 Q207.186 554.967 200.866 554.967 Q198.69 554.967 196.422 554.596 Q194.176 554.226 191.769 553.485 L191.769 548.786 Q193.852 549.921 196.075 550.476 Q198.297 551.032 200.774 551.032 Q204.778 551.032 207.116 548.925 Q209.454 546.819 209.454 543.208 Q209.454 539.596 207.116 537.49 Q204.778 535.384 200.774 535.384 Q198.899 535.384 197.024 535.8 Q195.172 536.217 193.227 537.097 L193.227 519.735 Z" fill="#000000" fill-rule="evenodd" fill-opacity="1" /><path clip-path="url(#clip800)" d="M 0 0 M130.242 254.972 L137.88 254.972 L137.88 228.607 L129.57 230.273 L129.57 226.014 L137.834 224.347 L142.51 224.347 L142.51 254.972 L150.149 254.972 L150.149 258.907 L130.242 258.907 L130.242 254.972 Z" fill="#000000" fill-rule="evenodd" fill-opacity="1" /><path clip-path="url(#clip800)" d="M 0 0 M155.218 253.028 L160.103 253.028 L160.103 258.907 L155.218 258.907 L155.218 253.028 Z" fill="#000000" fill-rule="evenodd" fill-opacity="1" /><path clip-path="url(#clip800)" d="M 0 0 M175.172 227.426 Q171.561 227.426 169.732 230.991 Q167.927 234.533 167.927 241.662 Q167.927 248.769 169.732 252.333 Q171.561 255.875 175.172 255.875 Q178.806 255.875 180.612 252.333 Q182.44 248.769 182.44 241.662 Q182.44 234.533 180.612 230.991 Q178.806 227.426 175.172 227.426 M175.172 223.722 Q180.982 223.722 184.038 228.329 Q187.116 232.912 187.116 241.662 Q187.116 250.389 184.038 254.995 Q180.982 259.579 175.172 259.579 Q169.362 259.579 166.283 254.995 Q163.228 250.389 163.228 241.662 Q163.228 232.912 166.283 228.329 Q169.362 223.722 175.172 223.722 Z" fill="#000000" fill-rule="evenodd" fill-opacity="1" /><path clip-path="url(#clip800)" d="M 0 0 M202.186 227.426 Q198.575 227.426 196.746 230.991 Q194.94 234.533 194.94 241.662 Q194.94 248.769 196.746 252.333 Q198.575 255.875 202.186 255.875 Q205.82 255.875 207.625 252.333 Q209.454 248.769 209.454 241.662 Q209.454 234.533 207.625 230.991 Q205.82 227.426 202.186 227.426 M202.186 223.722 Q207.996 223.722 211.051 228.329 Q214.13 232.912 214.13 241.662 Q214.13 250.389 211.051 254.995 Q207.996 259.579 202.186 259.579 Q196.376 259.579 193.297 254.995 Q190.241 250.389 190.241 241.662 Q190.241 232.912 193.297 228.329 Q196.376 223.722 202.186 223.722 Z" fill="#000000" fill-rule="evenodd" fill-opacity="1" /><path clip-path="url(#clip800)" d="M 0 0 M981.437 63.9476 L981.437 47.7034 L968.069 47.7034 L968.069 40.9789 L989.539 40.9789 L989.539 66.9452 Q984.799 70.3075 979.088 72.0494 Q973.376 73.7508 966.894 73.7508 Q952.716 73.7508 944.695 65.4869 Q936.715 57.1826 936.715 42.3968 Q936.715 27.5705 944.695 19.3066 Q952.716 11.0023 966.894 11.0023 Q972.809 11.0023 978.115 12.4606 Q983.463 13.9189 987.959 16.7545 L987.959 25.464 Q983.422 21.6156 978.318 19.6712 Q973.214 17.7268 967.583 17.7268 Q956.484 17.7268 950.893 23.9246 Q945.344 30.1225 945.344 42.3968 Q945.344 54.6305 950.893 60.8284 Q956.484 67.0263 967.583 67.0263 Q971.918 67.0263 975.32 66.2971 Q978.723 65.5274 981.437 63.9476 Z" fill="#000000" fill-rule="evenodd" fill-opacity="1" /><path clip-path="url(#clip800)" d="M 0 0 M1023.65 34.1734 Q1022.39 33.4443 1020.89 33.1202 Q1019.43 32.7556 1017.65 32.7556 Q1011.33 32.7556 1007.93 36.8875 Q1004.57 40.9789 1004.57 48.6757 L1004.57 72.576 L997.074 72.576 L997.074 27.2059 L1004.57 27.2059 L1004.57 34.2544 Q1006.92 30.1225 1010.68 28.1376 Q1014.45 26.1121 1019.84 26.1121 Q1020.61 26.1121 1021.54 26.2337 Q1022.47 26.3147 1023.61 26.5172 L1023.65 34.1734 Z" fill="#000000" fill-rule="evenodd" fill-opacity="1" /><path clip-path="url(#clip800)" d="M 0 0 M1052.08 49.7694 Q1043.05 49.7694 1039.57 51.8354 Q1036.08 53.9013 1036.08 58.8839 Q1036.08 62.8538 1038.68 65.2034 Q1041.31 67.5124 1045.81 67.5124 Q1052 67.5124 1055.73 63.1374 Q1059.5 58.7219 1059.5 51.4303 L1059.5 49.7694 L1052.08 49.7694 M1066.95 46.6907 L1066.95 72.576 L1059.5 72.576 L1059.5 65.6895 Q1056.95 69.8214 1053.14 71.8063 Q1049.33 73.7508 1043.82 73.7508 Q1036.85 73.7508 1032.72 69.8619 Q1028.63 65.9325 1028.63 59.3701 Q1028.63 51.7138 1033.73 47.825 Q1038.88 43.9361 1049.05 43.9361 L1059.5 43.9361 L1059.5 43.2069 Q1059.5 38.0623 1056.1 35.2672 Q1052.73 32.4315 1046.62 32.4315 Q1042.73 32.4315 1039.04 33.3632 Q1035.35 34.295 1031.95 36.1584 L1031.95 29.2718 Q1036.04 27.692 1039.89 26.9223 Q1043.74 26.1121 1047.39 26.1121 Q1057.23 26.1121 1062.09 31.2163 Q1066.95 36.3204 1066.95 46.6907 Z" fill="#000000" fill-rule="evenodd" fill-opacity="1" /><path clip-path="url(#clip800)" d="M 0 0 M1104.63 34.0924 L1104.63 9.54393 L1112.08 9.54393 L1112.08 72.576 L1104.63 72.576 L1104.63 65.7705 Q1102.28 69.8214 1098.67 71.8063 Q1095.11 73.7508 1090.08 73.7508 Q1081.86 73.7508 1076.67 67.1883 Q1071.53 60.6258 1071.53 49.9314 Q1071.53 39.2371 1076.67 32.6746 Q1081.86 26.1121 1090.08 26.1121 Q1095.11 26.1121 1098.67 28.0971 Q1102.28 30.0415 1104.63 34.0924 M1079.23 49.9314 Q1079.23 58.1548 1082.59 62.8538 Q1085.99 67.5124 1091.91 67.5124 Q1097.82 67.5124 1101.22 62.8538 Q1104.63 58.1548 1104.63 49.9314 Q1104.63 41.7081 1101.22 37.0496 Q1097.82 32.3505 1091.91 32.3505 Q1085.99 32.3505 1082.59 37.0496 Q1079.23 41.7081 1079.23 49.9314 Z" fill="#000000" fill-rule="evenodd" fill-opacity="1" /><path clip-path="url(#clip800)" d="M 0 0 M1119.9 27.2059 L1127.35 27.2059 L1127.35 72.576 L1119.9 72.576 L1119.9 27.2059 M1119.9 9.54393 L1127.35 9.54393 L1127.35 18.9825 L1119.9 18.9825 L1119.9 9.54393 Z" fill="#000000" fill-rule="evenodd" fill-opacity="1" /><path clip-path="url(#clip800)" d="M 0 0 M1173.98 48.0275 L1173.98 51.6733 L1139.71 51.6733 Q1140.19 59.3701 1144.32 63.421 Q1148.5 67.4314 1155.91 67.4314 Q1160.2 67.4314 1164.21 66.3781 Q1168.26 65.3249 1172.23 63.2184 L1172.23 70.267 Q1168.22 71.9684 1164.01 72.8596 Q1159.8 73.7508 1155.46 73.7508 Q1144.61 73.7508 1138.25 67.4314 Q1131.93 61.1119 1131.93 50.3365 Q1131.93 39.1965 1137.92 32.6746 Q1143.96 26.1121 1154.17 26.1121 Q1163.32 26.1121 1168.63 32.0264 Q1173.98 37.9003 1173.98 48.0275 M1166.52 45.84 Q1166.44 39.7232 1163.08 36.0774 Q1159.76 32.4315 1154.25 32.4315 Q1148.01 32.4315 1144.24 35.9558 Q1140.52 39.4801 1139.95 45.8805 L1166.52 45.84 Z" fill="#000000" fill-rule="evenodd" fill-opacity="1" /><path clip-path="url(#clip800)" d="M 0 0 M1219.51 45.1919 L1219.51 72.576 L1212.06 72.576 L1212.06 45.4349 Q1212.06 38.994 1209.54 35.7938 Q1207.03 32.5936 1202.01 32.5936 Q1195.97 32.5936 1192.49 36.4419 Q1189.01 40.2903 1189.01 46.9338 L1189.01 72.576 L1181.51 72.576 L1181.51 27.2059 L1189.01 27.2059 L1189.01 34.2544 Q1191.68 30.163 1195.28 28.1376 Q1198.93 26.1121 1203.67 26.1121 Q1211.49 26.1121 1215.5 30.9732 Q1219.51 35.7938 1219.51 45.1919 Z" fill="#000000" fill-rule="evenodd" fill-opacity="1" /><path clip-path="url(#clip800)" d="M 0 0 M1234.7 14.324 L1234.7 27.2059 L1250.05 27.2059 L1250.05 32.9987 L1234.7 32.9987 L1234.7 57.6282 Q1234.7 63.1779 1236.2 64.7578 Q1237.74 66.3376 1242.4 66.3376 L1250.05 66.3376 L1250.05 72.576 L1242.4 72.576 Q1233.77 72.576 1230.49 69.3758 Q1227.21 66.1351 1227.21 57.6282 L1227.21 32.9987 L1221.74 32.9987 L1221.74 27.2059 L1227.21 27.2059 L1227.21 14.324 L1234.7 14.324 Z" fill="#000000" fill-rule="evenodd" fill-opacity="1" /><path clip-path="url(#clip800)" d="M 0 0 M1323.05 48.0275 L1323.05 51.6733 L1288.78 51.6733 Q1289.27 59.3701 1293.4 63.421 Q1297.57 67.4314 1304.98 67.4314 Q1309.28 67.4314 1313.29 66.3781 Q1317.34 65.3249 1321.31 63.2184 L1321.31 70.267 Q1317.3 71.9684 1313.08 72.8596 Q1308.87 73.7508 1304.54 73.7508 Q1293.68 73.7508 1287.32 67.4314 Q1281 61.1119 1281 50.3365 Q1281 39.1965 1287 32.6746 Q1293.03 26.1121 1303.24 26.1121 Q1312.4 26.1121 1317.7 32.0264 Q1323.05 37.9003 1323.05 48.0275 M1315.6 45.84 Q1315.52 39.7232 1312.15 36.0774 Q1308.83 32.4315 1303.32 32.4315 Q1297.08 32.4315 1293.32 35.9558 Q1289.59 39.4801 1289.02 45.8805 L1315.6 45.84 Z" fill="#000000" fill-rule="evenodd" fill-opacity="1" /><path clip-path="url(#clip800)" d="M 0 0 M1325.52 27.2059 L1333.42 27.2059 L1347.6 65.2844 L1361.78 27.2059 L1369.68 27.2059 L1352.66 72.576 L1342.53 72.576 L1325.52 27.2059 Z" fill="#000000" fill-rule="evenodd" fill-opacity="1" /><path clip-path="url(#clip800)" d="M 0 0 M1398.11 49.7694 Q1389.08 49.7694 1385.6 51.8354 Q1382.11 53.9013 1382.11 58.8839 Q1382.11 62.8538 1384.7 65.2034 Q1387.34 67.5124 1391.83 67.5124 Q1398.03 67.5124 1401.76 63.1374 Q1405.53 58.7219 1405.53 51.4303 L1405.53 49.7694 L1398.11 49.7694 M1412.98 46.6907 L1412.98 72.576 L1405.53 72.576 L1405.53 65.6895 Q1402.97 69.8214 1399.17 71.8063 Q1395.36 73.7508 1389.85 73.7508 Q1382.88 73.7508 1378.75 69.8619 Q1374.66 65.9325 1374.66 59.3701 Q1374.66 51.7138 1379.76 47.825 Q1384.91 43.9361 1395.07 43.9361 L1405.53 43.9361 L1405.53 43.2069 Q1405.53 38.0623 1402.12 35.2672 Q1398.76 32.4315 1392.64 32.4315 Q1388.76 32.4315 1385.07 33.3632 Q1381.38 34.295 1377.98 36.1584 L1377.98 29.2718 Q1382.07 27.692 1385.92 26.9223 Q1389.77 26.1121 1393.41 26.1121 Q1403.26 26.1121 1408.12 31.2163 Q1412.98 36.3204 1412.98 46.6907 Z" fill="#000000" fill-rule="evenodd" fill-opacity="1" /><path clip-path="url(#clip800)" d="M 0 0 M1420.8 9.54393 L1428.25 9.54393 L1428.25 72.576 L1420.8 72.576 L1420.8 9.54393 Z" fill="#000000" fill-rule="evenodd" fill-opacity="1" /><path clip-path="url(#clip800)" d="M 0 0 M1435.3 54.671 L1435.3 27.2059 L1442.75 27.2059 L1442.75 54.3874 Q1442.75 60.8284 1445.27 64.0691 Q1447.78 67.2693 1452.8 67.2693 Q1458.84 67.2693 1462.32 63.421 Q1465.84 59.5726 1465.84 52.9291 L1465.84 27.2059 L1473.3 27.2059 L1473.3 72.576 L1465.84 72.576 L1465.84 65.6084 Q1463.13 69.7404 1459.52 71.7658 Q1455.96 73.7508 1451.22 73.7508 Q1443.4 73.7508 1439.35 68.8897 Q1435.3 64.0286 1435.3 54.671 M1454.06 26.1121 L1454.06 26.1121 Z" fill="#000000" fill-rule="evenodd" fill-opacity="1" /><path clip-path="url(#clip800)" d="M 0 0 M1501.74 49.7694 Q1492.7 49.7694 1489.22 51.8354 Q1485.73 53.9013 1485.73 58.8839 Q1485.73 62.8538 1488.33 65.2034 Q1490.96 67.5124 1495.46 67.5124 Q1501.65 67.5124 1505.38 63.1374 Q1509.15 58.7219 1509.15 51.4303 L1509.15 49.7694 L1501.74 49.7694 M1516.6 46.6907 L1516.6 72.576 L1509.15 72.576 L1509.15 65.6895 Q1506.6 69.8214 1502.79 71.8063 Q1498.98 73.7508 1493.47 73.7508 Q1486.5 73.7508 1482.37 69.8619 Q1478.28 65.9325 1478.28 59.3701 Q1478.28 51.7138 1483.38 47.825 Q1488.53 43.9361 1498.7 43.9361 L1509.15 43.9361 L1509.15 43.2069 Q1509.15 38.0623 1505.75 35.2672 Q1502.38 32.4315 1496.27 32.4315 Q1492.38 32.4315 1488.69 33.3632 Q1485.01 34.295 1481.6 36.1584 L1481.6 29.2718 Q1485.69 27.692 1489.54 26.9223 Q1493.39 26.1121 1497.04 26.1121 Q1506.88 26.1121 1511.74 31.2163 Q1516.6 36.3204 1516.6 46.6907 Z" fill="#000000" fill-rule="evenodd" fill-opacity="1" /><path clip-path="url(#clip800)" d="M 0 0 M1531.79 14.324 L1531.79 27.2059 L1547.15 27.2059 L1547.15 32.9987 L1531.79 32.9987 L1531.79 57.6282 Q1531.79 63.1779 1533.29 64.7578 Q1534.83 66.3376 1539.49 66.3376 L1547.15 66.3376 L1547.15 72.576 L1539.49 72.576 Q1530.86 72.576 1527.58 69.3758 Q1524.3 66.1351 1524.3 57.6282 L1524.3 32.9987 L1518.83 32.9987 L1518.83 27.2059 L1524.3 27.2059 L1524.3 14.324 L1531.79 14.324 Z" fill="#000000" fill-rule="evenodd" fill-opacity="1" /><path clip-path="url(#clip800)" d="M 0 0 M1554.96 27.2059 L1562.42 27.2059 L1562.42 72.576 L1554.96 72.576 L1554.96 27.2059 M1554.96 9.54393 L1562.42 9.54393 L1562.42 18.9825 L1554.96 18.9825 L1554.96 9.54393 Z" fill="#000000" fill-rule="evenodd" fill-opacity="1" /><path clip-path="url(#clip800)" d="M 0 0 M1587.82 32.4315 Q1581.82 32.4315 1578.34 37.1306 Q1574.85 41.7891 1574.85 49.9314 Q1574.85 58.0738 1578.3 62.7728 Q1581.78 67.4314 1587.82 67.4314 Q1593.77 67.4314 1597.26 62.7323 Q1600.74 58.0333 1600.74 49.9314 Q1600.74 41.8701 1597.26 37.1711 Q1593.77 32.4315 1587.82 32.4315 M1587.82 26.1121 Q1597.54 26.1121 1603.09 32.4315 Q1608.64 38.7509 1608.64 49.9314 Q1608.64 61.0714 1603.09 67.4314 Q1597.54 73.7508 1587.82 73.7508 Q1578.05 73.7508 1572.5 67.4314 Q1567 61.0714 1567 49.9314 Q1567 38.7509 1572.5 32.4315 Q1578.05 26.1121 1587.82 26.1121 Z" fill="#000000" fill-rule="evenodd" fill-opacity="1" /><path clip-path="url(#clip800)" d="M 0 0 M1654.17 45.1919 L1654.17 72.576 L1646.72 72.576 L1646.72 45.4349 Q1646.72 38.994 1644.21 35.7938 Q1641.69 32.5936 1636.67 32.5936 Q1630.64 32.5936 1627.15 36.4419 Q1623.67 40.2903 1623.67 46.9338 L1623.67 72.576 L1616.17 72.576 L1616.17 27.2059 L1623.67 27.2059 L1623.67 34.2544 Q1626.34 30.163 1629.95 28.1376 Q1633.59 26.1121 1638.33 26.1121 Q1646.15 26.1121 1650.16 30.9732 Q1654.17 35.7938 1654.17 45.1919 Z" fill="#000000" fill-rule="evenodd" fill-opacity="1" /><path clip-path="url(#clip800)" d="M 0 0 M716.355 1508.52 L722.848 1508.52 L732.842 1548.69 L742.804 1508.52 L750.029 1508.52 L760.023 1548.69 L769.986 1508.52 L776.511 1508.52 L764.575 1556.04 L756.49 1556.04 L746.464 1514.79 L736.343 1556.04 L728.259 1556.04 L716.355 1508.52 Z" fill="#000000" fill-rule="evenodd" fill-opacity="1" /><path clip-path="url(#clip800)" d="M 0 0 M781.221 1520.4 L787.078 1520.4 L787.078 1556.04 L781.221 1556.04 L781.221 1520.4 M781.221 1506.52 L787.078 1506.52 L787.078 1513.93 L781.221 1513.93 L781.221 1506.52 Z" fill="#000000" fill-rule="evenodd" fill-opacity="1" /><path clip-path="url(#clip800)" d="M 0 0 M799.013 1510.27 L799.013 1520.4 L811.076 1520.4 L811.076 1524.95 L799.013 1524.95 L799.013 1544.3 Q799.013 1548.66 800.191 1549.9 Q801.4 1551.14 805.061 1551.14 L811.076 1551.14 L811.076 1556.04 L805.061 1556.04 Q798.281 1556.04 795.703 1553.53 Q793.125 1550.98 793.125 1544.3 L793.125 1524.95 L788.828 1524.95 L788.828 1520.4 L793.125 1520.4 L793.125 1510.27 L799.013 1510.27 Z" fill="#000000" fill-rule="evenodd" fill-opacity="1" /><path clip-path="url(#clip800)" d="M 0 0 M846.852 1534.53 L846.852 1556.04 L840.995 1556.04 L840.995 1534.72 Q840.995 1529.66 839.022 1527.14 Q837.048 1524.63 833.102 1524.63 Q828.359 1524.63 825.622 1527.65 Q822.885 1530.68 822.885 1535.9 L822.885 1556.04 L816.996 1556.04 L816.996 1506.52 L822.885 1506.52 L822.885 1525.93 Q824.985 1522.72 827.818 1521.13 Q830.683 1519.54 834.407 1519.54 Q840.55 1519.54 843.701 1523.36 Q846.852 1527.14 846.852 1534.53 Z" fill="#000000" fill-rule="evenodd" fill-opacity="1" /><path clip-path="url(#clip800)" d="M 0 0 M852.995 1520.4 L858.851 1520.4 L858.851 1556.04 L852.995 1556.04 L852.995 1520.4 M852.995 1506.52 L858.851 1506.52 L858.851 1513.93 L852.995 1513.93 L852.995 1506.52 Z" fill="#000000" fill-rule="evenodd" fill-opacity="1" /><path clip-path="url(#clip800)" d="M 0 0 M894.626 1534.53 L894.626 1556.04 L888.77 1556.04 L888.77 1534.72 Q888.77 1529.66 886.796 1527.14 Q884.823 1524.63 880.876 1524.63 Q876.134 1524.63 873.397 1527.65 Q870.659 1530.68 870.659 1535.9 L870.659 1556.04 L864.771 1556.04 L864.771 1520.4 L870.659 1520.4 L870.659 1525.93 Q872.76 1522.72 875.593 1521.13 Q878.457 1519.54 882.181 1519.54 Q888.324 1519.54 891.475 1523.36 Q894.626 1527.14 894.626 1534.53 Z" fill="#000000" fill-rule="evenodd" fill-opacity="1" /><path clip-path="url(#clip800)" d="M 0 0 M927.282 1510.27 L927.282 1520.4 L939.345 1520.4 L939.345 1524.95 L927.282 1524.95 L927.282 1544.3 Q927.282 1548.66 928.46 1549.9 Q929.669 1551.14 933.33 1551.14 L939.345 1551.14 L939.345 1556.04 L933.33 1556.04 Q926.55 1556.04 923.972 1553.53 Q921.394 1550.98 921.394 1544.3 L921.394 1524.95 L917.097 1524.95 L917.097 1520.4 L921.394 1520.4 L921.394 1510.27 L927.282 1510.27 Z" fill="#000000" fill-rule="evenodd" fill-opacity="1" /><path clip-path="url(#clip800)" d="M 0 0 M975.121 1534.53 L975.121 1556.04 L969.264 1556.04 L969.264 1534.72 Q969.264 1529.66 967.291 1527.14 Q965.317 1524.63 961.371 1524.63 Q956.628 1524.63 953.891 1527.65 Q951.154 1530.68 951.154 1535.9 L951.154 1556.04 L945.265 1556.04 L945.265 1506.52 L951.154 1506.52 L951.154 1525.93 Q953.254 1522.72 956.087 1521.13 Q958.952 1519.54 962.676 1519.54 Q968.819 1519.54 971.97 1523.36 Q975.121 1527.14 975.121 1534.53 Z" fill="#000000" fill-rule="evenodd" fill-opacity="1" /><path clip-path="url(#clip800)" d="M 0 0 M981.264 1520.4 L987.12 1520.4 L987.12 1556.04 L981.264 1556.04 L981.264 1520.4 M981.264 1506.52 L987.12 1506.52 L987.12 1513.93 L981.264 1513.93 L981.264 1506.52 Z" fill="#000000" fill-rule="evenodd" fill-opacity="1" /><path clip-path="url(#clip800)" d="M 0 0 M1015.99 1521.45 L1015.99 1526.98 Q1013.51 1525.71 1010.83 1525.07 Q1008.16 1524.44 1005.29 1524.44 Q1000.93 1524.44 998.737 1525.77 Q996.573 1527.11 996.573 1529.79 Q996.573 1531.82 998.133 1533 Q999.692 1534.15 1004.4 1535.2 L1006.41 1535.64 Q1012.65 1536.98 1015.26 1539.43 Q1017.9 1541.85 1017.9 1546.21 Q1017.9 1551.17 1013.95 1554.07 Q1010.04 1556.97 1003.16 1556.97 Q1000.3 1556.97 997.178 1556.39 Q994.09 1555.85 990.653 1554.74 L990.653 1548.69 Q993.899 1550.38 997.05 1551.24 Q1000.2 1552.07 1003.29 1552.07 Q1007.43 1552.07 1009.65 1550.66 Q1011.88 1549.23 1011.88 1546.65 Q1011.88 1544.27 1010.26 1542.99 Q1008.67 1541.72 1003.23 1540.54 L1001.19 1540.07 Q995.746 1538.92 993.327 1536.56 Q990.908 1534.18 990.908 1530.04 Q990.908 1525.01 994.472 1522.27 Q998.037 1519.54 1004.59 1519.54 Q1007.84 1519.54 1010.7 1520.01 Q1013.57 1520.49 1015.99 1521.45 Z" fill="#000000" fill-rule="evenodd" fill-opacity="1" /><path clip-path="url(#clip800)" d="M 0 0 M1062.81 1506.52 L1062.81 1511.39 L1057.21 1511.39 Q1054.06 1511.39 1052.81 1512.66 Q1051.6 1513.93 1051.6 1517.24 L1051.6 1520.4 L1061.25 1520.4 L1061.25 1524.95 L1051.6 1524.95 L1051.6 1556.04 L1045.72 1556.04 L1045.72 1524.95 L1040.11 1524.95 L1040.11 1520.4 L1045.72 1520.4 L1045.72 1517.91 Q1045.72 1511.96 1048.49 1509.26 Q1051.25 1506.52 1057.27 1506.52 L1062.81 1506.52 Z" fill="#000000" fill-rule="evenodd" fill-opacity="1" /><path clip-path="url(#clip800)" d="M 0 0 M1085.15 1538.12 Q1078.05 1538.12 1075.32 1539.75 Q1072.58 1541.37 1072.58 1545.29 Q1072.58 1548.4 1074.62 1550.25 Q1076.69 1552.07 1080.22 1552.07 Q1085.09 1552.07 1088.02 1548.63 Q1090.98 1545.16 1090.98 1539.43 L1090.98 1538.12 L1085.15 1538.12 M1096.83 1535.71 L1096.83 1556.04 L1090.98 1556.04 L1090.98 1550.63 Q1088.97 1553.88 1085.98 1555.44 Q1082.99 1556.97 1078.66 1556.97 Q1073.18 1556.97 1069.94 1553.91 Q1066.72 1550.82 1066.72 1545.67 Q1066.72 1539.65 1070.73 1536.6 Q1074.78 1533.54 1082.76 1533.54 L1090.98 1533.54 L1090.98 1532.97 Q1090.98 1528.93 1088.3 1526.73 Q1085.66 1524.5 1080.86 1524.5 Q1077.8 1524.5 1074.9 1525.23 Q1072.01 1525.97 1069.33 1527.43 L1069.33 1522.02 Q1072.55 1520.78 1075.57 1520.17 Q1078.6 1519.54 1081.46 1519.54 Q1089.19 1519.54 1093.01 1523.55 Q1096.83 1527.56 1096.83 1535.71 Z" fill="#000000" fill-rule="evenodd" fill-opacity="1" /><path clip-path="url(#clip800)" d="M 0 0 M1128.63 1521.76 L1128.63 1527.24 Q1126.15 1525.87 1123.63 1525.2 Q1121.15 1524.5 1118.6 1524.5 Q1112.91 1524.5 1109.76 1528.13 Q1106.6 1531.73 1106.6 1538.25 Q1106.6 1544.78 1109.76 1548.4 Q1112.91 1552 1118.6 1552 Q1121.15 1552 1123.63 1551.33 Q1126.15 1550.63 1128.63 1549.26 L1128.63 1554.68 Q1126.18 1555.82 1123.54 1556.39 Q1120.93 1556.97 1117.97 1556.97 Q1109.91 1556.97 1105.17 1551.91 Q1100.43 1546.85 1100.43 1538.25 Q1100.43 1529.53 1105.2 1524.53 Q1110.01 1519.54 1118.35 1519.54 Q1121.05 1519.54 1123.63 1520.11 Q1126.21 1520.65 1128.63 1521.76 Z" fill="#000000" fill-rule="evenodd" fill-opacity="1" /><path clip-path="url(#clip800)" d="M 0 0 M1140.57 1510.27 L1140.57 1520.4 L1152.63 1520.4 L1152.63 1524.95 L1140.57 1524.95 L1140.57 1544.3 Q1140.57 1548.66 1141.74 1549.9 Q1142.95 1551.14 1146.61 1551.14 L1152.63 1551.14 L1152.63 1556.04 L1146.61 1556.04 Q1139.83 1556.04 1137.26 1553.53 Q1134.68 1550.98 1134.68 1544.3 L1134.68 1524.95 L1130.38 1524.95 L1130.38 1520.4 L1134.68 1520.4 L1134.68 1510.27 L1140.57 1510.27 Z" fill="#000000" fill-rule="evenodd" fill-opacity="1" /><path clip-path="url(#clip800)" d="M 0 0 M1172.58 1524.5 Q1167.87 1524.5 1165.14 1528.19 Q1162.4 1531.85 1162.4 1538.25 Q1162.4 1544.65 1165.11 1548.34 Q1167.84 1552 1172.58 1552 Q1177.26 1552 1180 1548.31 Q1182.74 1544.62 1182.74 1538.25 Q1182.74 1531.92 1180 1528.23 Q1177.26 1524.5 1172.58 1524.5 M1172.58 1519.54 Q1180.22 1519.54 1184.58 1524.5 Q1188.94 1529.47 1188.94 1538.25 Q1188.94 1547 1184.58 1552 Q1180.22 1556.97 1172.58 1556.97 Q1164.91 1556.97 1160.55 1552 Q1156.22 1547 1156.22 1538.25 Q1156.22 1529.47 1160.55 1524.5 Q1164.91 1519.54 1172.58 1519.54 Z" fill="#000000" fill-rule="evenodd" fill-opacity="1" /><path clip-path="url(#clip800)" d="M 0 0 M1215.74 1525.87 Q1214.76 1525.3 1213.58 1525.04 Q1212.43 1524.76 1211.03 1524.76 Q1206.07 1524.76 1203.39 1528 Q1200.75 1531.22 1200.75 1537.27 L1200.75 1556.04 L1194.86 1556.04 L1194.86 1520.4 L1200.75 1520.4 L1200.75 1525.93 Q1202.6 1522.69 1205.56 1521.13 Q1208.52 1519.54 1212.75 1519.54 Q1213.36 1519.54 1214.09 1519.63 Q1214.82 1519.7 1215.71 1519.85 L1215.74 1525.87 Z" fill="#000000" fill-rule="evenodd" fill-opacity="1" /><path clip-path="url(#clip800)" d="M 0 0 M1256.42 1524.5 Q1251.71 1524.5 1248.97 1528.19 Q1246.24 1531.85 1246.24 1538.25 Q1246.24 1544.65 1248.94 1548.34 Q1251.68 1552 1256.42 1552 Q1261.1 1552 1263.84 1548.31 Q1266.57 1544.62 1266.57 1538.25 Q1266.57 1531.92 1263.84 1528.23 Q1261.1 1524.5 1256.42 1524.5 M1256.42 1519.54 Q1264.06 1519.54 1268.42 1524.5 Q1272.78 1529.47 1272.78 1538.25 Q1272.78 1547 1268.42 1552 Q1264.06 1556.97 1256.42 1556.97 Q1248.75 1556.97 1244.39 1552 Q1240.06 1547 1240.06 1538.25 Q1240.06 1529.47 1244.39 1524.5 Q1248.75 1519.54 1256.42 1519.54 Z" fill="#000000" fill-rule="evenodd" fill-opacity="1" /><path clip-path="url(#clip800)" d="M 0 0 M1296.97 1506.52 L1296.97 1511.39 L1291.37 1511.39 Q1288.22 1511.39 1286.98 1512.66 Q1285.77 1513.93 1285.77 1517.24 L1285.77 1520.4 L1295.41 1520.4 L1295.41 1524.95 L1285.77 1524.95 L1285.77 1556.04 L1279.88 1556.04 L1279.88 1524.95 L1274.28 1524.95 L1274.28 1520.4 L1279.88 1520.4 L1279.88 1517.91 Q1279.88 1511.96 1282.65 1509.26 Q1285.42 1506.52 1291.43 1506.52 L1296.97 1506.52 Z" fill="#000000" fill-rule="evenodd" fill-opacity="1" /><path clip-path="url(#clip800)" d="M 0 0 M1329.63 1510.27 L1329.63 1520.4 L1341.69 1520.4 L1341.69 1524.95 L1329.63 1524.95 L1329.63 1544.3 Q1329.63 1548.66 1330.8 1549.9 Q1332.01 1551.14 1335.67 1551.14 L1341.69 1551.14 L1341.69 1556.04 L1335.67 1556.04 Q1328.89 1556.04 1326.32 1553.53 Q1323.74 1550.98 1323.74 1544.3 L1323.74 1524.95 L1319.44 1524.95 L1319.44 1520.4 L1323.74 1520.4 L1323.74 1510.27 L1329.63 1510.27 Z" fill="#000000" fill-rule="evenodd" fill-opacity="1" /><path clip-path="url(#clip800)" d="M 0 0 M1377.47 1534.53 L1377.47 1556.04 L1371.61 1556.04 L1371.61 1534.72 Q1371.61 1529.66 1369.64 1527.14 Q1367.66 1524.63 1363.72 1524.63 Q1358.97 1524.63 1356.24 1527.65 Q1353.5 1530.68 1353.5 1535.9 L1353.5 1556.04 L1347.61 1556.04 L1347.61 1506.52 L1353.5 1506.52 L1353.5 1525.93 Q1355.6 1522.72 1358.43 1521.13 Q1361.3 1519.54 1365.02 1519.54 Q1371.16 1519.54 1374.31 1523.36 Q1377.47 1527.14 1377.47 1534.53 Z" fill="#000000" fill-rule="evenodd" fill-opacity="1" /><path clip-path="url(#clip800)" d="M 0 0 M1414.1 1536.76 L1414.1 1539.62 L1387.17 1539.62 Q1387.55 1545.67 1390.8 1548.85 Q1394.08 1552 1399.9 1552 Q1403.28 1552 1406.43 1551.17 Q1409.61 1550.35 1412.73 1548.69 L1412.73 1554.23 Q1409.58 1555.57 1406.27 1556.27 Q1402.96 1556.97 1399.55 1556.97 Q1391.02 1556.97 1386.03 1552 Q1381.06 1547.04 1381.06 1538.57 Q1381.06 1529.82 1385.77 1524.69 Q1390.51 1519.54 1398.54 1519.54 Q1405.73 1519.54 1409.9 1524.18 Q1414.1 1528.8 1414.1 1536.76 M1408.24 1535.04 Q1408.18 1530.23 1405.54 1527.37 Q1402.93 1524.5 1398.6 1524.5 Q1393.7 1524.5 1390.74 1527.27 Q1387.81 1530.04 1387.36 1535.07 L1408.24 1535.04 Z" fill="#000000" fill-rule="evenodd" fill-opacity="1" /><path clip-path="url(#clip800)" d="M 0 0 M1466.55 1538.25 Q1466.55 1531.79 1463.88 1528.13 Q1461.24 1524.44 1456.59 1524.44 Q1451.94 1524.44 1449.27 1528.13 Q1446.63 1531.79 1446.63 1538.25 Q1446.63 1544.71 1449.27 1548.4 Q1451.94 1552.07 1456.59 1552.07 Q1461.24 1552.07 1463.88 1548.4 Q1466.55 1544.71 1466.55 1538.25 M1446.63 1525.81 Q1448.47 1522.62 1451.28 1521.1 Q1454.11 1519.54 1458.02 1519.54 Q1464.52 1519.54 1468.56 1524.69 Q1472.63 1529.85 1472.63 1538.25 Q1472.63 1546.65 1468.56 1551.81 Q1464.52 1556.97 1458.02 1556.97 Q1454.11 1556.97 1451.28 1555.44 Q1448.47 1553.88 1446.63 1550.7 L1446.63 1556.04 L1440.74 1556.04 L1440.74 1506.52 L1446.63 1506.52 L1446.63 1525.81 Z" fill="#000000" fill-rule="evenodd" fill-opacity="1" /><path clip-path="url(#clip800)" d="M 0 0 M1509.27 1536.76 L1509.27 1539.62 L1482.34 1539.62 Q1482.72 1545.67 1485.97 1548.85 Q1489.25 1552 1495.07 1552 Q1498.45 1552 1501.6 1551.17 Q1504.78 1550.35 1507.9 1548.69 L1507.9 1554.23 Q1504.75 1555.57 1501.44 1556.27 Q1498.13 1556.97 1494.72 1556.97 Q1486.19 1556.97 1481.19 1552 Q1476.23 1547.04 1476.23 1538.57 Q1476.23 1529.82 1480.94 1524.69 Q1485.68 1519.54 1493.7 1519.54 Q1500.9 1519.54 1505.07 1524.18 Q1509.27 1528.8 1509.27 1536.76 M1503.41 1535.04 Q1503.35 1530.23 1500.71 1527.37 Q1498.1 1524.5 1493.77 1524.5 Q1488.86 1524.5 1485.9 1527.27 Q1482.98 1530.04 1482.53 1535.07 L1503.41 1535.04 Z" fill="#000000" fill-rule="evenodd" fill-opacity="1" /><path clip-path="url(#clip800)" d="M 0 0 M1538.14 1521.45 L1538.14 1526.98 Q1535.65 1525.71 1532.98 1525.07 Q1530.31 1524.44 1527.44 1524.44 Q1523.08 1524.44 1520.88 1525.77 Q1518.72 1527.11 1518.72 1529.79 Q1518.72 1531.82 1520.28 1533 Q1521.84 1534.15 1526.55 1535.2 L1528.56 1535.64 Q1534.79 1536.98 1537.4 1539.43 Q1540.05 1541.85 1540.05 1546.21 Q1540.05 1551.17 1536.1 1554.07 Q1532.18 1556.97 1525.31 1556.97 Q1522.44 1556.97 1519.32 1556.39 Q1516.24 1555.85 1512.8 1554.74 L1512.8 1548.69 Q1516.05 1550.38 1519.2 1551.24 Q1522.35 1552.07 1525.44 1552.07 Q1529.57 1552.07 1531.8 1550.66 Q1534.03 1549.23 1534.03 1546.65 Q1534.03 1544.27 1532.41 1542.99 Q1530.81 1541.72 1525.37 1540.54 L1523.34 1540.07 Q1517.89 1538.92 1515.47 1536.56 Q1513.05 1534.18 1513.05 1530.04 Q1513.05 1525.01 1516.62 1522.27 Q1520.18 1519.54 1526.74 1519.54 Q1529.99 1519.54 1532.85 1520.01 Q1535.72 1520.49 1538.14 1521.45 Z" fill="#000000" fill-rule="evenodd" fill-opacity="1" /><path clip-path="url(#clip800)" d="M 0 0 M1551.98 1510.27 L1551.98 1520.4 L1564.04 1520.4 L1564.04 1524.95 L1551.98 1524.95 L1551.98 1544.3 Q1551.98 1548.66 1553.16 1549.9 Q1554.37 1551.14 1558.03 1551.14 L1564.04 1551.14 L1564.04 1556.04 L1558.03 1556.04 Q1551.25 1556.04 1548.67 1553.53 Q1546.09 1550.98 1546.09 1544.3 L1546.09 1524.95 L1541.8 1524.95 L1541.8 1520.4 L1546.09 1520.4 L1546.09 1510.27 L1551.98 1510.27 Z" fill="#000000" fill-rule="evenodd" fill-opacity="1" /><path clip-path="url(#clip800)" d="M 0 0 M1604.98 1506.58 Q1600.71 1513.9 1598.64 1521.06 Q1596.57 1528.23 1596.57 1535.58 Q1596.57 1542.93 1598.64 1550.16 Q1600.74 1557.35 1604.98 1564.64 L1599.88 1564.64 Q1595.11 1557.16 1592.72 1549.93 Q1590.37 1542.71 1590.37 1535.58 Q1590.37 1528.48 1592.72 1521.29 Q1595.08 1514.09 1599.88 1506.58 L1604.98 1506.58 Z" fill="#000000" fill-rule="evenodd" fill-opacity="1" /><path clip-path="url(#clip800)" d="M 0 0 M1611.12 1506.52 L1616.97 1506.52 L1616.97 1556.04 L1611.12 1556.04 L1611.12 1506.52 Z" fill="#000000" fill-rule="evenodd" fill-opacity="1" /><path clip-path="url(#clip800)" d="M 0 0 M1636.93 1524.5 Q1632.22 1524.5 1629.48 1528.19 Q1626.75 1531.85 1626.75 1538.25 Q1626.75 1544.65 1629.45 1548.34 Q1632.19 1552 1636.93 1552 Q1641.61 1552 1644.35 1548.31 Q1647.08 1544.62 1647.08 1538.25 Q1647.08 1531.92 1644.35 1528.23 Q1641.61 1524.5 1636.93 1524.5 M1636.93 1519.54 Q1644.57 1519.54 1648.93 1524.5 Q1653.29 1529.47 1653.29 1538.25 Q1653.29 1547 1648.93 1552 Q1644.57 1556.97 1636.93 1556.97 Q1629.26 1556.97 1624.9 1552 Q1620.57 1547 1620.57 1538.25 Q1620.57 1529.47 1624.9 1524.5 Q1629.26 1519.54 1636.93 1519.54 Z" fill="#000000" fill-rule="evenodd" fill-opacity="1" /><path clip-path="url(#clip800)" d="M 0 0 M1682.89 1537.81 Q1682.89 1531.44 1680.25 1527.94 Q1677.64 1524.44 1672.9 1524.44 Q1668.19 1524.44 1665.55 1527.94 Q1662.94 1531.44 1662.94 1537.81 Q1662.94 1544.14 1665.55 1547.64 Q1668.19 1551.14 1672.9 1551.14 Q1677.64 1551.14 1680.25 1547.64 Q1682.89 1544.14 1682.89 1537.81 M1688.75 1551.62 Q1688.75 1560.72 1684.71 1565.15 Q1680.66 1569.6 1672.32 1569.6 Q1669.24 1569.6 1666.5 1569.13 Q1663.76 1568.68 1661.18 1567.72 L1661.18 1562.03 Q1663.76 1563.43 1666.28 1564.1 Q1668.79 1564.76 1671.4 1564.76 Q1677.16 1564.76 1680.03 1561.74 Q1682.89 1558.75 1682.89 1552.67 L1682.89 1549.77 Q1681.08 1552.92 1678.24 1554.48 Q1675.41 1556.04 1671.47 1556.04 Q1664.91 1556.04 1660.9 1551.05 Q1656.89 1546.05 1656.89 1537.81 Q1656.89 1529.53 1660.9 1524.53 Q1664.91 1519.54 1671.47 1519.54 Q1675.41 1519.54 1678.24 1521.1 Q1681.08 1522.66 1682.89 1525.81 L1682.89 1520.4 L1688.75 1520.4 L1688.75 1551.62 Z" fill="#000000" fill-rule="evenodd" fill-opacity="1" /><path clip-path="url(#clip800)" d="M 0 0 M1738.34 1521.45 L1738.34 1526.98 Q1735.85 1525.71 1733.18 1525.07 Q1730.51 1524.44 1727.64 1524.44 Q1723.28 1524.44 1721.09 1525.77 Q1718.92 1527.11 1718.92 1529.79 Q1718.92 1531.82 1720.48 1533 Q1722.04 1534.15 1726.75 1535.2 L1728.76 1535.64 Q1735 1536.98 1737.6 1539.43 Q1740.25 1541.85 1740.25 1546.21 Q1740.25 1551.17 1736.3 1554.07 Q1732.39 1556.97 1725.51 1556.97 Q1722.65 1556.97 1719.53 1556.39 Q1716.44 1555.85 1713 1554.74 L1713 1548.69 Q1716.25 1550.38 1719.4 1551.24 Q1722.55 1552.07 1725.64 1552.07 Q1729.78 1552.07 1732 1550.66 Q1734.23 1549.23 1734.23 1546.65 Q1734.23 1544.27 1732.61 1542.99 Q1731.02 1541.72 1725.57 1540.54 L1723.54 1540.07 Q1718.09 1538.92 1715.68 1536.56 Q1713.26 1534.18 1713.26 1530.04 Q1713.26 1525.01 1716.82 1522.27 Q1720.39 1519.54 1726.94 1519.54 Q1730.19 1519.54 1733.05 1520.01 Q1735.92 1520.49 1738.34 1521.45 Z" fill="#000000" fill-rule="evenodd" fill-opacity="1" /><path clip-path="url(#clip800)" d="M 0 0 M1772.04 1521.76 L1772.04 1527.24 Q1769.56 1525.87 1767.05 1525.2 Q1764.56 1524.5 1762.02 1524.5 Q1756.32 1524.5 1753.17 1528.13 Q1750.02 1531.73 1750.02 1538.25 Q1750.02 1544.78 1753.17 1548.4 Q1756.32 1552 1762.02 1552 Q1764.56 1552 1767.05 1551.33 Q1769.56 1550.63 1772.04 1549.26 L1772.04 1554.68 Q1769.59 1555.82 1766.95 1556.39 Q1764.34 1556.97 1761.38 1556.97 Q1753.33 1556.97 1748.59 1551.91 Q1743.84 1546.85 1743.84 1538.25 Q1743.84 1529.53 1748.62 1524.53 Q1753.42 1519.54 1761.76 1519.54 Q1764.47 1519.54 1767.05 1520.11 Q1769.62 1520.65 1772.04 1521.76 Z" fill="#000000" fill-rule="evenodd" fill-opacity="1" /><path clip-path="url(#clip800)" d="M 0 0 M1794.39 1538.12 Q1787.29 1538.12 1784.55 1539.75 Q1781.81 1541.37 1781.81 1545.29 Q1781.81 1548.4 1783.85 1550.25 Q1785.92 1552.07 1789.45 1552.07 Q1794.32 1552.07 1797.25 1548.63 Q1800.21 1545.16 1800.21 1539.43 L1800.21 1538.12 L1794.39 1538.12 M1806.07 1535.71 L1806.07 1556.04 L1800.21 1556.04 L1800.21 1550.63 Q1798.21 1553.88 1795.21 1555.44 Q1792.22 1556.97 1787.89 1556.97 Q1782.42 1556.97 1779.17 1553.91 Q1775.96 1550.82 1775.96 1545.67 Q1775.96 1539.65 1779.97 1536.6 Q1784.01 1533.54 1792 1533.54 L1800.21 1533.54 L1800.21 1532.97 Q1800.21 1528.93 1797.54 1526.73 Q1794.9 1524.5 1790.09 1524.5 Q1787.03 1524.5 1784.14 1525.23 Q1781.24 1525.97 1778.57 1527.43 L1778.57 1522.02 Q1781.78 1520.78 1784.81 1520.17 Q1787.83 1519.54 1790.69 1519.54 Q1798.43 1519.54 1802.25 1523.55 Q1806.07 1527.56 1806.07 1535.71 Z" fill="#000000" fill-rule="evenodd" fill-opacity="1" /><path clip-path="url(#clip800)" d="M 0 0 M1812.21 1506.52 L1818.07 1506.52 L1818.07 1556.04 L1812.21 1556.04 L1812.21 1506.52 Z" fill="#000000" fill-rule="evenodd" fill-opacity="1" /><path clip-path="url(#clip800)" d="M 0 0 M1854.7 1536.76 L1854.7 1539.62 L1827.78 1539.62 Q1828.16 1545.67 1831.4 1548.85 Q1834.68 1552 1840.51 1552 Q1843.88 1552 1847.03 1551.17 Q1850.21 1550.35 1853.33 1548.69 L1853.33 1554.23 Q1850.18 1555.57 1846.87 1556.27 Q1843.56 1556.97 1840.16 1556.97 Q1831.63 1556.97 1826.63 1552 Q1821.66 1547.04 1821.66 1538.57 Q1821.66 1529.82 1826.37 1524.69 Q1831.12 1519.54 1839.14 1519.54 Q1846.33 1519.54 1850.5 1524.18 Q1854.7 1528.8 1854.7 1536.76 M1848.85 1535.04 Q1848.78 1530.23 1846.14 1527.37 Q1843.53 1524.5 1839.2 1524.5 Q1834.3 1524.5 1831.34 1527.27 Q1828.41 1530.04 1827.97 1535.07 L1848.85 1535.04 Z" fill="#000000" fill-rule="evenodd" fill-opacity="1" /><path clip-path="url(#clip800)" d="M 0 0 M1859.92 1506.58 L1865.01 1506.58 Q1869.79 1514.09 1872.14 1521.29 Q1874.53 1528.48 1874.53 1535.58 Q1874.53 1542.71 1872.14 1549.93 Q1869.79 1557.16 1865.01 1564.64 L1859.92 1564.64 Q1864.16 1557.35 1866.22 1550.16 Q1868.32 1542.93 1868.32 1535.58 Q1868.32 1528.23 1866.22 1521.06 Q1864.16 1513.9 1859.92 1506.58 Z" fill="#000000" fill-rule="evenodd" fill-opacity="1" /><path clip-path="url(#clip800)" d="M 0 0 M45.7677 1105.33 L63.6235 1105.33 L63.6235 1097.24 Q63.6235 1092.76 61.3 1090.31 Q58.9765 1087.86 54.6797 1087.86 Q50.4147 1087.86 48.0912 1090.31 Q45.7677 1092.76 45.7677 1097.24 L45.7677 1105.33 M40.4842 1111.76 L40.4842 1097.24 Q40.4842 1089.26 44.1126 1085.18 Q47.7092 1081.08 54.6797 1081.08 Q61.7138 1081.08 65.3104 1085.18 Q68.907 1089.26 68.907 1097.24 L68.907 1105.33 L88.0042 1105.33 L88.0042 1111.76 L40.4842 1111.76 Z" fill="#000000" fill-rule="evenodd" fill-opacity="1" /><path clip-path="url(#clip800)" d="M 0 0 M57.8307 1055.42 Q57.2578 1056.41 57.0032 1057.59 Q56.7167 1058.73 56.7167 1060.13 Q56.7167 1065.1 59.9632 1067.77 Q63.1779 1070.41 69.2253 1070.41 L88.0042 1070.41 L88.0042 1076.3 L52.3562 1076.3 L52.3562 1070.41 L57.8944 1070.41 Q54.6479 1068.57 53.0883 1065.61 Q51.4968 1062.65 51.4968 1058.41 Q51.4968 1057.81 51.5923 1057.08 Q51.656 1056.35 51.8151 1055.45 L57.8307 1055.42 Z" fill="#000000" fill-rule="evenodd" fill-opacity="1" /><path clip-path="url(#clip800)" d="M 0 0 M56.4621 1036.9 Q56.4621 1041.61 60.1542 1044.35 Q63.8145 1047.08 70.212 1047.08 Q76.6095 1047.08 80.3017 1044.38 Q83.9619 1041.64 83.9619 1036.9 Q83.9619 1032.22 80.2698 1029.48 Q76.5777 1026.74 70.212 1026.74 Q63.8781 1026.74 60.186 1029.48 Q56.4621 1032.22 56.4621 1036.9 M51.4968 1036.9 Q51.4968 1029.26 56.4621 1024.9 Q61.4273 1020.54 70.212 1020.54 Q78.9649 1020.54 83.9619 1024.9 Q88.9272 1029.26 88.9272 1036.9 Q88.9272 1044.57 83.9619 1048.93 Q78.9649 1053.26 70.212 1053.26 Q61.4273 1053.26 56.4621 1048.93 Q51.4968 1044.57 51.4968 1036.9 Z" fill="#000000" fill-rule="evenodd" fill-opacity="1" /><path clip-path="url(#clip800)" d="M 0 0 M82.657 1008.73 L101.563 1008.73 L101.563 1014.62 L52.3562 1014.62 L52.3562 1008.73 L57.7671 1008.73 Q54.5842 1006.88 53.0564 1004.08 Q51.4968 1001.25 51.4968 997.335 Q51.4968 990.842 56.6531 986.8 Q61.8093 982.726 70.212 982.726 Q78.6147 982.726 83.771 986.8 Q88.9272 990.842 88.9272 997.335 Q88.9272 1001.25 87.3994 1004.08 Q85.8398 1006.88 82.657 1008.73 M70.212 988.805 Q63.7508 988.805 60.0905 991.479 Q56.3984 994.121 56.3984 998.767 Q56.3984 1003.41 60.0905 1006.09 Q63.7508 1008.73 70.212 1008.73 Q76.6732 1008.73 80.3653 1006.09 Q84.0256 1003.41 84.0256 998.767 Q84.0256 994.121 80.3653 991.479 Q76.6732 988.805 70.212 988.805 Z" fill="#000000" fill-rule="evenodd" fill-opacity="1" /><path clip-path="url(#clip800)" d="M 0 0 M56.4621 962.769 Q56.4621 967.48 60.1542 970.217 Q63.8145 972.955 70.212 972.955 Q76.6095 972.955 80.3017 970.249 Q83.9619 967.512 83.9619 962.769 Q83.9619 958.091 80.2698 955.353 Q76.5777 952.616 70.212 952.616 Q63.8781 952.616 60.186 955.353 Q56.4621 958.091 56.4621 962.769 M51.4968 962.769 Q51.4968 955.131 56.4621 950.77 Q61.4273 946.41 70.212 946.41 Q78.9649 946.41 83.9619 950.77 Q88.9272 955.131 88.9272 962.769 Q88.9272 970.44 83.9619 974.801 Q78.9649 979.129 70.212 979.129 Q61.4273 979.129 56.4621 974.801 Q51.4968 970.44 51.4968 962.769 Z" fill="#000000" fill-rule="evenodd" fill-opacity="1" /><path clip-path="url(#clip800)" d="M 0 0 M57.8307 919.61 Q57.2578 920.597 57.0032 921.774 Q56.7167 922.92 56.7167 924.321 Q56.7167 929.286 59.9632 931.959 Q63.1779 934.601 69.2253 934.601 L88.0042 934.601 L88.0042 940.489 L52.3562 940.489 L52.3562 934.601 L57.8944 934.601 Q54.6479 932.755 53.0883 929.795 Q51.4968 926.835 51.4968 922.602 Q51.4968 921.997 51.5923 921.265 Q51.656 920.533 51.8151 919.642 L57.8307 919.61 Z" fill="#000000" fill-rule="evenodd" fill-opacity="1" /><path clip-path="url(#clip800)" d="M 0 0 M42.2347 907.674 L52.3562 907.674 L52.3562 895.611 L56.9077 895.611 L56.9077 907.674 L76.2594 907.674 Q80.6199 907.674 81.8613 906.497 Q83.1026 905.287 83.1026 901.627 L83.1026 895.611 L88.0042 895.611 L88.0042 901.627 Q88.0042 908.406 85.4897 910.984 Q82.9434 913.563 76.2594 913.563 L56.9077 913.563 L56.9077 917.859 L52.3562 917.859 L52.3562 913.563 L42.2347 913.563 L42.2347 907.674 Z" fill="#000000" fill-rule="evenodd" fill-opacity="1" /><path clip-path="url(#clip800)" d="M 0 0 M52.3562 889.468 L52.3562 883.612 L88.0042 883.612 L88.0042 889.468 L52.3562 889.468 M38.479 889.468 L38.479 883.612 L45.895 883.612 L45.895 889.468 L38.479 889.468 Z" fill="#000000" fill-rule="evenodd" fill-opacity="1" /><path clip-path="url(#clip800)" d="M 0 0 M56.4621 863.655 Q56.4621 868.366 60.1542 871.103 Q63.8145 873.84 70.212 873.84 Q76.6095 873.84 80.3017 871.135 Q83.9619 868.398 83.9619 863.655 Q83.9619 858.977 80.2698 856.239 Q76.5777 853.502 70.212 853.502 Q63.8781 853.502 60.186 856.239 Q56.4621 858.977 56.4621 863.655 M51.4968 863.655 Q51.4968 856.017 56.4621 851.656 Q61.4273 847.295 70.212 847.295 Q78.9649 847.295 83.9619 851.656 Q88.9272 856.017 88.9272 863.655 Q88.9272 871.326 83.9619 875.687 Q78.9649 880.015 70.212 880.015 Q61.4273 880.015 56.4621 875.687 Q51.4968 871.326 51.4968 863.655 Z" fill="#000000" fill-rule="evenodd" fill-opacity="1" /><path clip-path="url(#clip800)" d="M 0 0 M66.4881 811.52 L88.0042 811.52 L88.0042 817.377 L66.679 817.377 Q61.6183 817.377 59.1038 819.35 Q56.5894 821.323 56.5894 825.27 Q56.5894 830.013 59.6131 832.75 Q62.6368 835.487 67.8567 835.487 L88.0042 835.487 L88.0042 841.375 L52.3562 841.375 L52.3562 835.487 L57.8944 835.487 Q54.6797 833.386 53.0883 830.554 Q51.4968 827.689 51.4968 823.965 Q51.4968 817.822 55.3163 814.671 Q59.1038 811.52 66.4881 811.52 Z" fill="#000000" fill-rule="evenodd" fill-opacity="1" /><path clip-path="url(#clip800)" d="M 0 0 M56.4621 770.843 Q56.4621 775.554 60.1542 778.291 Q63.8145 781.028 70.212 781.028 Q76.6095 781.028 80.3017 778.323 Q83.9619 775.586 83.9619 770.843 Q83.9619 766.165 80.2698 763.427 Q76.5777 760.69 70.212 760.69 Q63.8781 760.69 60.186 763.427 Q56.4621 766.165 56.4621 770.843 M51.4968 770.843 Q51.4968 763.205 56.4621 758.844 Q61.4273 754.483 70.212 754.483 Q78.9649 754.483 83.9619 758.844 Q88.9272 763.205 88.9272 770.843 Q88.9272 778.514 83.9619 782.875 Q78.9649 787.203 70.212 787.203 Q61.4273 787.203 56.4621 782.875 Q51.4968 778.514 51.4968 770.843 Z" fill="#000000" fill-rule="evenodd" fill-opacity="1" /><path clip-path="url(#clip800)" d="M 0 0 M38.479 730.294 L43.3487 730.294 L43.3487 735.896 Q43.3487 739.047 44.6219 740.288 Q45.895 741.497 49.2052 741.497 L52.3562 741.497 L52.3562 731.853 L56.9077 731.853 L56.9077 741.497 L88.0042 741.497 L88.0042 747.386 L56.9077 747.386 L56.9077 752.988 L52.3562 752.988 L52.3562 747.386 L49.8736 747.386 Q43.9216 747.386 41.2162 744.617 Q38.479 741.848 38.479 735.832 L38.479 730.294 Z" fill="#000000" fill-rule="evenodd" fill-opacity="1" /><path clip-path="url(#clip800)" d="M 0 0 M82.657 697.765 L101.563 697.765 L101.563 703.653 L52.3562 703.653 L52.3562 697.765 L57.7671 697.765 Q54.5842 695.919 53.0564 693.118 Q51.4968 690.285 51.4968 686.37 Q51.4968 679.877 56.6531 675.835 Q61.8093 671.761 70.212 671.761 Q78.6147 671.761 83.771 675.835 Q88.9272 679.877 88.9272 686.37 Q88.9272 690.285 87.3994 693.118 Q85.8398 695.919 82.657 697.765 M70.212 677.84 Q63.7508 677.84 60.0905 680.514 Q56.3984 683.156 56.3984 687.803 Q56.3984 692.45 60.0905 695.123 Q63.7508 697.765 70.212 697.765 Q76.6732 697.765 80.3653 695.123 Q84.0256 692.45 84.0256 687.803 Q84.0256 683.156 80.3653 680.514 Q76.6732 677.84 70.212 677.84 Z" fill="#000000" fill-rule="evenodd" fill-opacity="1" /><path clip-path="url(#clip800)" d="M 0 0 M57.8307 644.962 Q57.2578 645.948 57.0032 647.126 Q56.7167 648.272 56.7167 649.672 Q56.7167 654.637 59.9632 657.311 Q63.1779 659.953 69.2253 659.953 L88.0042 659.953 L88.0042 665.841 L52.3562 665.841 L52.3562 659.953 L57.8944 659.953 Q54.6479 658.107 53.0883 655.147 Q51.4968 652.187 51.4968 647.953 Q51.4968 647.349 51.5923 646.617 Q51.656 645.885 51.8151 644.993 L57.8307 644.962 Z" fill="#000000" fill-rule="evenodd" fill-opacity="1" /><path clip-path="url(#clip800)" d="M 0 0 M56.4621 626.437 Q56.4621 631.148 60.1542 633.885 Q63.8145 636.622 70.212 636.622 Q76.6095 636.622 80.3017 633.917 Q83.9619 631.18 83.9619 626.437 Q83.9619 621.759 80.2698 619.021 Q76.5777 616.284 70.212 616.284 Q63.8781 616.284 60.186 619.021 Q56.4621 621.759 56.4621 626.437 M51.4968 626.437 Q51.4968 618.798 56.4621 614.438 Q61.4273 610.077 70.212 610.077 Q78.9649 610.077 83.9619 614.438 Q88.9272 618.798 88.9272 626.437 Q88.9272 634.108 83.9619 638.468 Q78.9649 642.797 70.212 642.797 Q61.4273 642.797 56.4621 638.468 Q51.4968 634.108 51.4968 626.437 Z" fill="#000000" fill-rule="evenodd" fill-opacity="1" /><path clip-path="url(#clip800)" d="M 0 0 M70.212 578.344 Q63.7508 578.344 60.0905 581.018 Q56.3984 583.66 56.3984 588.307 Q56.3984 592.954 60.0905 595.627 Q63.7508 598.269 70.212 598.269 Q76.6732 598.269 80.3653 595.627 Q84.0256 592.954 84.0256 588.307 Q84.0256 583.66 80.3653 581.018 Q76.6732 578.344 70.212 578.344 M57.7671 598.269 Q54.5842 596.423 53.0564 593.622 Q51.4968 590.789 51.4968 586.874 Q51.4968 580.381 56.6531 576.339 Q61.8093 572.265 70.212 572.265 Q78.6147 572.265 83.771 576.339 Q88.9272 580.381 88.9272 586.874 Q88.9272 590.789 87.3994 593.622 Q85.8398 596.423 82.657 598.269 L88.0042 598.269 L88.0042 604.157 L38.479 604.157 L38.479 598.269 L57.7671 598.269 Z" fill="#000000" fill-rule="evenodd" fill-opacity="1" /><path clip-path="url(#clip800)" d="M 0 0 M38.479 566.122 L38.479 560.266 L88.0042 560.266 L88.0042 566.122 L38.479 566.122 Z" fill="#000000" fill-rule="evenodd" fill-opacity="1" /><path clip-path="url(#clip800)" d="M 0 0 M68.7161 523.631 L71.5806 523.631 L71.5806 550.558 Q77.6281 550.176 80.8109 546.93 Q83.9619 543.651 83.9619 537.827 Q83.9619 534.453 83.1344 531.302 Q82.3069 528.119 80.6518 525 L86.1899 525 Q87.5267 528.151 88.227 531.461 Q88.9272 534.771 88.9272 538.177 Q88.9272 546.707 83.9619 551.704 Q78.9967 556.669 70.5303 556.669 Q61.7774 556.669 56.6531 551.959 Q51.4968 547.216 51.4968 539.195 Q51.4968 532.002 56.1438 527.833 Q60.7589 523.631 68.7161 523.631 M66.9973 529.488 Q62.1912 529.551 59.3266 532.193 Q56.4621 534.803 56.4621 539.132 Q56.4621 544.033 59.2312 546.993 Q62.0002 549.922 67.0292 550.367 L66.9973 529.488 Z" fill="#000000" fill-rule="evenodd" fill-opacity="1" /><path clip-path="url(#clip800)" d="M 0 0 M59.1993 489.734 Q55.2526 487.538 53.3747 484.482 Q51.4968 481.427 51.4968 477.289 Q51.4968 471.719 55.4117 468.695 Q59.2948 465.671 66.4881 465.671 L88.0042 465.671 L88.0042 471.56 L66.679 471.56 Q61.5546 471.56 59.072 473.374 Q56.5894 475.188 56.5894 478.912 Q56.5894 483.464 59.6131 486.105 Q62.6368 488.747 67.8567 488.747 L88.0042 488.747 L88.0042 494.635 L66.679 494.635 Q61.5228 494.635 59.072 496.45 Q56.5894 498.264 56.5894 502.051 Q56.5894 506.539 59.6449 509.181 Q62.6686 511.823 67.8567 511.823 L88.0042 511.823 L88.0042 517.711 L52.3562 517.711 L52.3562 511.823 L57.8944 511.823 Q54.616 509.818 53.0564 507.017 Q51.4968 504.216 51.4968 500.364 Q51.4968 496.481 53.4702 493.776 Q55.4436 491.039 59.1993 489.734 Z" fill="#000000" fill-rule="evenodd" fill-opacity="1" /><path clip-path="url(#clip800)" d="M 0 0 M53.4065 436.803 L58.9447 436.803 Q57.6716 439.286 57.035 441.959 Q56.3984 444.633 56.3984 447.497 Q56.3984 451.858 57.7352 454.054 Q59.072 456.218 61.7456 456.218 Q63.7826 456.218 64.9603 454.659 Q66.1061 453.099 67.1565 448.388 L67.6021 446.383 Q68.9389 440.145 71.3897 437.535 Q73.8086 434.893 78.1691 434.893 Q83.1344 434.893 86.0308 438.84 Q88.9272 442.755 88.9272 449.63 Q88.9272 452.494 88.3543 455.614 Q87.8132 458.701 86.6992 462.138 L80.6518 462.138 Q82.3387 458.892 83.198 455.741 Q84.0256 452.59 84.0256 449.502 Q84.0256 445.365 82.6251 443.137 Q81.1929 440.909 78.6147 440.909 Q76.2276 440.909 74.9545 442.532 Q73.6813 444.123 72.5037 449.566 L72.0262 451.603 Q70.8804 457.046 68.5251 459.465 Q66.138 461.884 62.0002 461.884 Q56.9713 461.884 54.2341 458.319 Q51.4968 454.754 51.4968 448.198 Q51.4968 444.951 51.9743 442.086 Q52.4517 439.222 53.4065 436.803 Z" fill="#000000" fill-rule="evenodd" fill-opacity="1" /><polyline clip-path="url(#clip802)" style="stroke:#009af9; stroke-width:4; stroke-opacity:1; fill:none" points="
  238.13,849.283 269.72,849.283 269.72,815.524 274.174,815.524 274.174,781.766 283.041,781.766 283.041,748.007 309.339,748.007 309.339,680.49 325.426,680.49 
  325.426,646.731 333.248,646.731 333.248,612.972 349.966,612.972 349.966,579.214 363.708,579.214 363.708,545.455 394.878,545.455 394.878,511.697 421.757,511.697 
  421.757,477.938 426.467,477.938 426.467,444.179 556.64,444.179 556.64,410.421 593.169,410.421 593.169,376.662 628.711,376.662 628.711,342.903 699.92,342.903 
  699.92,309.145 1204.45,309.145 1204.45,275.386 2160.52,275.386 2160.52,241.627 4082.9,241.627 4082.9,207.869 
  "/>
<polyline clip-path="url(#clip802)" style="stroke:#e26f46; stroke-width:4; stroke-opacity:1; fill:none" points="
  238.13,410.421 288.337,410.421 288.337,376.662 533.593,376.662 533.593,342.903 1667.14,342.903 1667.14,309.145 1718.87,309.145 1718.87,275.386 2028.31,275.386 
  2028.31,241.627 4082.9,241.627 4082.9,207.869 
  "/>
<path clip-path="url(#clip800)" d="
M1688.3 388.432 L2280.76 388.432 L2280.76 206.992 L1688.3 206.992  Z
  " fill="#ffffff" fill-rule="evenodd" fill-opacity="1"/>
<polyline clip-path="url(#clip800)" style="stroke:#000000; stroke-width:4; stroke-opacity:1; fill:none" points="
  1688.3,388.432 2280.76,388.432 2280.76,206.992 1688.3,206.992 1688.3,388.432 
  "/>
<polyline clip-path="url(#clip800)" style="stroke:#009af9; stroke-width:4; stroke-opacity:1; fill:none" points="
  1712.3,267.472 1856.3,267.472 
  "/>
<path clip-path="url(#clip800)" d="M 0 0 M1880.3 250.192 L1886.6 250.192 L1901.92 279.104 L1901.92 250.192 L1906.46 250.192 L1906.46 284.752 L1900.17 284.752 L1884.84 255.84 L1884.84 284.752 L1880.3 284.752 L1880.3 250.192 Z" fill="#000000" fill-rule="evenodd" fill-opacity="1" /><path clip-path="url(#clip800)" d="M 0 0 M1933.1 270.724 L1933.1 272.808 L1913.52 272.808 Q1913.8 277.206 1916.16 279.521 Q1918.54 281.812 1922.78 281.812 Q1925.23 281.812 1927.53 281.21 Q1929.84 280.609 1932.11 279.405 L1932.11 283.433 Q1929.82 284.405 1927.41 284.914 Q1925 285.423 1922.53 285.423 Q1916.32 285.423 1912.69 281.812 Q1909.08 278.201 1909.08 272.044 Q1909.08 265.678 1912.5 261.951 Q1915.95 258.201 1921.79 258.201 Q1927.02 258.201 1930.05 261.581 Q1933.1 264.937 1933.1 270.724 M1928.85 269.474 Q1928.8 265.979 1926.88 263.896 Q1924.98 261.812 1921.83 261.812 Q1918.27 261.812 1916.11 263.826 Q1913.98 265.84 1913.66 269.498 L1928.85 269.474 Z" fill="#000000" fill-rule="evenodd" fill-opacity="1" /><path clip-path="url(#clip800)" d="M 0 0 M1935.1 258.826 L1939.35 258.826 L1944.68 279.058 L1949.98 258.826 L1955 258.826 L1960.33 279.058 L1965.63 258.826 L1969.89 258.826 L1963.1 284.752 L1958.08 284.752 L1952.5 263.502 L1946.9 284.752 L1941.88 284.752 L1935.1 258.826 Z" fill="#000000" fill-rule="evenodd" fill-opacity="1" /><path clip-path="url(#clip800)" d="M 0 0 M1978.57 251.465 L1978.57 258.826 L1987.34 258.826 L1987.34 262.137 L1978.57 262.137 L1978.57 276.211 Q1978.57 279.382 1979.42 280.285 Q1980.3 281.187 1982.97 281.187 L1987.34 281.187 L1987.34 284.752 L1982.97 284.752 Q1978.04 284.752 1976.16 282.923 Q1974.29 281.072 1974.29 276.211 L1974.29 262.137 L1971.16 262.137 L1971.16 258.826 L1974.29 258.826 L1974.29 251.465 L1978.57 251.465 Z" fill="#000000" fill-rule="evenodd" fill-opacity="1" /><path clip-path="url(#clip800)" d="M 0 0 M2001.85 261.812 Q1998.43 261.812 1996.44 264.498 Q1994.45 267.16 1994.45 271.812 Q1994.45 276.465 1996.41 279.15 Q1998.41 281.812 2001.85 281.812 Q2005.26 281.812 2007.25 279.127 Q2009.24 276.442 2009.24 271.812 Q2009.24 267.206 2007.25 264.521 Q2005.26 261.812 2001.85 261.812 M2001.85 258.201 Q2007.41 258.201 2010.58 261.812 Q2013.75 265.424 2013.75 271.812 Q2013.75 278.178 2010.58 281.812 Q2007.41 285.423 2001.85 285.423 Q1996.28 285.423 1993.1 281.812 Q1989.96 278.178 1989.96 271.812 Q1989.96 265.424 1993.1 261.812 Q1996.28 258.201 2001.85 258.201 Z" fill="#000000" fill-rule="evenodd" fill-opacity="1" /><path clip-path="url(#clip800)" d="M 0 0 M2039.77 269.104 L2039.77 284.752 L2035.51 284.752 L2035.51 269.243 Q2035.51 265.562 2034.08 263.734 Q2032.64 261.905 2029.77 261.905 Q2026.32 261.905 2024.33 264.104 Q2022.34 266.303 2022.34 270.099 L2022.34 284.752 L2018.06 284.752 L2018.06 258.826 L2022.34 258.826 L2022.34 262.854 Q2023.87 260.516 2025.93 259.359 Q2028.01 258.201 2030.72 258.201 Q2035.19 258.201 2037.48 260.979 Q2039.77 263.734 2039.77 269.104 Z" fill="#000000" fill-rule="evenodd" fill-opacity="1" /><path clip-path="url(#clip800)" d="M 0 0 M2070.3 252.854 L2070.3 257.785 Q2067.94 255.586 2065.26 254.498 Q2062.59 253.41 2059.59 253.41 Q2053.66 253.41 2050.51 257.044 Q2047.36 260.655 2047.36 267.507 Q2047.36 274.336 2050.51 277.97 Q2053.66 281.581 2059.59 281.581 Q2062.59 281.581 2065.26 280.493 Q2067.94 279.405 2070.3 277.206 L2070.3 282.09 Q2067.85 283.757 2065.09 284.59 Q2062.36 285.423 2059.31 285.423 Q2051.46 285.423 2046.95 280.632 Q2042.43 275.817 2042.43 267.507 Q2042.43 259.174 2046.95 254.382 Q2051.46 249.567 2059.31 249.567 Q2062.41 249.567 2065.14 250.4 Q2067.9 251.211 2070.3 252.854 Z" fill="#000000" fill-rule="evenodd" fill-opacity="1" /><path clip-path="url(#clip800)" d="M 0 0 M2098.52 279.822 L2098.52 270.539 L2090.88 270.539 L2090.88 266.697 L2103.15 266.697 L2103.15 281.535 Q2100.44 283.456 2097.18 284.451 Q2093.91 285.423 2090.21 285.423 Q2082.11 285.423 2077.53 280.701 Q2072.97 275.956 2072.97 267.507 Q2072.97 259.035 2077.53 254.312 Q2082.11 249.567 2090.21 249.567 Q2093.59 249.567 2096.62 250.4 Q2099.68 251.234 2102.25 252.854 L2102.25 257.831 Q2099.65 255.632 2096.74 254.521 Q2093.82 253.41 2090.6 253.41 Q2084.26 253.41 2081.07 256.951 Q2077.9 260.493 2077.9 267.507 Q2077.9 274.498 2081.07 278.039 Q2084.26 281.581 2090.6 281.581 Q2093.08 281.581 2095.03 281.164 Q2096.97 280.724 2098.52 279.822 Z" fill="#000000" fill-rule="evenodd" fill-opacity="1" /><polyline clip-path="url(#clip800)" style="stroke:#e26f46; stroke-width:4; stroke-opacity:1; fill:none" points="
  1712.3,327.952 1856.3,327.952 
  "/>
<path clip-path="url(#clip800)" d="M 0 0 M1880.3 310.672 L1886.6 310.672 L1901.92 339.584 L1901.92 310.672 L1906.46 310.672 L1906.46 345.232 L1900.17 345.232 L1884.84 316.32 L1884.84 345.232 L1880.3 345.232 L1880.3 310.672 Z" fill="#000000" fill-rule="evenodd" fill-opacity="1" /><path clip-path="url(#clip800)" d="M 0 0 M1933.1 331.204 L1933.1 333.288 L1913.52 333.288 Q1913.8 337.686 1916.16 340.001 Q1918.54 342.292 1922.78 342.292 Q1925.23 342.292 1927.53 341.69 Q1929.84 341.089 1932.11 339.885 L1932.11 343.913 Q1929.82 344.885 1927.41 345.394 Q1925 345.903 1922.53 345.903 Q1916.32 345.903 1912.69 342.292 Q1909.08 338.681 1909.08 332.524 Q1909.08 326.158 1912.5 322.431 Q1915.95 318.681 1921.79 318.681 Q1927.02 318.681 1930.05 322.061 Q1933.1 325.417 1933.1 331.204 M1928.85 329.954 Q1928.8 326.459 1926.88 324.376 Q1924.98 322.292 1921.83 322.292 Q1918.27 322.292 1916.11 324.306 Q1913.98 326.32 1913.66 329.978 L1928.85 329.954 Z" fill="#000000" fill-rule="evenodd" fill-opacity="1" /><path clip-path="url(#clip800)" d="M 0 0 M1935.1 319.306 L1939.35 319.306 L1944.68 339.538 L1949.98 319.306 L1955 319.306 L1960.33 339.538 L1965.63 319.306 L1969.89 319.306 L1963.1 345.232 L1958.08 345.232 L1952.5 323.982 L1946.9 345.232 L1941.88 345.232 L1935.1 319.306 Z" fill="#000000" fill-rule="evenodd" fill-opacity="1" /><path clip-path="url(#clip800)" d="M 0 0 M1978.57 311.945 L1978.57 319.306 L1987.34 319.306 L1987.34 322.617 L1978.57 322.617 L1978.57 336.691 Q1978.57 339.862 1979.42 340.765 Q1980.3 341.667 1982.97 341.667 L1987.34 341.667 L1987.34 345.232 L1982.97 345.232 Q1978.04 345.232 1976.16 343.403 Q1974.29 341.552 1974.29 336.691 L1974.29 322.617 L1971.16 322.617 L1971.16 319.306 L1974.29 319.306 L1974.29 311.945 L1978.57 311.945 Z" fill="#000000" fill-rule="evenodd" fill-opacity="1" /><path clip-path="url(#clip800)" d="M 0 0 M2001.85 322.292 Q1998.43 322.292 1996.44 324.978 Q1994.45 327.64 1994.45 332.292 Q1994.45 336.945 1996.41 339.63 Q1998.41 342.292 2001.85 342.292 Q2005.26 342.292 2007.25 339.607 Q2009.24 336.922 2009.24 332.292 Q2009.24 327.686 2007.25 325.001 Q2005.26 322.292 2001.85 322.292 M2001.85 318.681 Q2007.41 318.681 2010.58 322.292 Q2013.75 325.904 2013.75 332.292 Q2013.75 338.658 2010.58 342.292 Q2007.41 345.903 2001.85 345.903 Q1996.28 345.903 1993.1 342.292 Q1989.96 338.658 1989.96 332.292 Q1989.96 325.904 1993.1 322.292 Q1996.28 318.681 2001.85 318.681 Z" fill="#000000" fill-rule="evenodd" fill-opacity="1" /><path clip-path="url(#clip800)" d="M 0 0 M2039.77 329.584 L2039.77 345.232 L2035.51 345.232 L2035.51 329.723 Q2035.51 326.042 2034.08 324.214 Q2032.64 322.385 2029.77 322.385 Q2026.32 322.385 2024.33 324.584 Q2022.34 326.783 2022.34 330.579 L2022.34 345.232 L2018.06 345.232 L2018.06 319.306 L2022.34 319.306 L2022.34 323.334 Q2023.87 320.996 2025.93 319.839 Q2028.01 318.681 2030.72 318.681 Q2035.19 318.681 2037.48 321.459 Q2039.77 324.214 2039.77 329.584 Z" fill="#000000" fill-rule="evenodd" fill-opacity="1" /><path clip-path="url(#clip800)" d="M 0 0 M2070.3 313.334 L2070.3 318.265 Q2067.94 316.066 2065.26 314.978 Q2062.59 313.89 2059.59 313.89 Q2053.66 313.89 2050.51 317.524 Q2047.36 321.135 2047.36 327.987 Q2047.36 334.816 2050.51 338.45 Q2053.66 342.061 2059.59 342.061 Q2062.59 342.061 2065.26 340.973 Q2067.94 339.885 2070.3 337.686 L2070.3 342.57 Q2067.85 344.237 2065.09 345.07 Q2062.36 345.903 2059.31 345.903 Q2051.46 345.903 2046.95 341.112 Q2042.43 336.297 2042.43 327.987 Q2042.43 319.654 2046.95 314.862 Q2051.46 310.047 2059.31 310.047 Q2062.41 310.047 2065.14 310.88 Q2067.9 311.691 2070.3 313.334 Z" fill="#000000" fill-rule="evenodd" fill-opacity="1" /><path clip-path="url(#clip800)" d="M 0 0 M2096.32 329.584 L2096.32 345.232 L2092.06 345.232 L2092.06 329.723 Q2092.06 326.042 2090.63 324.214 Q2089.19 322.385 2086.32 322.385 Q2082.87 322.385 2080.88 324.584 Q2078.89 326.783 2078.89 330.579 L2078.89 345.232 L2074.61 345.232 L2074.61 309.214 L2078.89 309.214 L2078.89 323.334 Q2080.42 320.996 2082.48 319.839 Q2084.56 318.681 2087.27 318.681 Q2091.74 318.681 2094.03 321.459 Q2096.32 324.214 2096.32 329.584 Z" fill="#000000" fill-rule="evenodd" fill-opacity="1" /><path clip-path="url(#clip800)" d="M 0 0 M2110.84 322.292 Q2107.41 322.292 2105.42 324.978 Q2103.43 327.64 2103.43 332.292 Q2103.43 336.945 2105.4 339.63 Q2107.39 342.292 2110.84 342.292 Q2114.24 342.292 2116.23 339.607 Q2118.22 336.922 2118.22 332.292 Q2118.22 327.686 2116.23 325.001 Q2114.24 322.292 2110.84 322.292 M2110.84 318.681 Q2116.39 318.681 2119.56 322.292 Q2122.73 325.904 2122.73 332.292 Q2122.73 338.658 2119.56 342.292 Q2116.39 345.903 2110.84 345.903 Q2105.26 345.903 2102.09 342.292 Q2098.94 338.658 2098.94 332.292 Q2098.94 325.904 2102.09 322.292 Q2105.26 318.681 2110.84 318.681 Z" fill="#000000" fill-rule="evenodd" fill-opacity="1" /><path clip-path="url(#clip800)" d="M 0 0 M2127.2 309.214 L2131.46 309.214 L2131.46 345.232 L2127.2 345.232 L2127.2 309.214 Z" fill="#000000" fill-rule="evenodd" fill-opacity="1" /><path clip-path="url(#clip800)" d="M 0 0 M2158.1 331.204 L2158.1 333.288 L2138.52 333.288 Q2138.8 337.686 2141.16 340.001 Q2143.54 342.292 2147.78 342.292 Q2150.23 342.292 2152.52 341.69 Q2154.84 341.089 2157.11 339.885 L2157.11 343.913 Q2154.82 344.885 2152.41 345.394 Q2150 345.903 2147.52 345.903 Q2141.32 345.903 2137.69 342.292 Q2134.08 338.681 2134.08 332.524 Q2134.08 326.158 2137.5 322.431 Q2140.95 318.681 2146.78 318.681 Q2152.02 318.681 2155.05 322.061 Q2158.1 325.417 2158.1 331.204 M2153.84 329.954 Q2153.8 326.459 2151.88 324.376 Q2149.98 322.292 2146.83 322.292 Q2143.27 322.292 2141.11 324.306 Q2138.98 326.32 2138.66 329.978 L2153.84 329.954 Z" fill="#000000" fill-rule="evenodd" fill-opacity="1" /><path clip-path="url(#clip800)" d="M 0 0 M2179.1 320.07 L2179.1 324.098 Q2177.29 323.172 2175.35 322.709 Q2173.4 322.246 2171.32 322.246 Q2168.15 322.246 2166.55 323.218 Q2164.98 324.191 2164.98 326.135 Q2164.98 327.616 2166.11 328.473 Q2167.25 329.306 2170.67 330.07 L2172.13 330.394 Q2176.67 331.366 2178.57 333.149 Q2180.49 334.908 2180.49 338.079 Q2180.49 341.69 2177.62 343.797 Q2174.77 345.903 2169.77 345.903 Q2167.69 345.903 2165.42 345.487 Q2163.17 345.093 2160.67 344.283 L2160.67 339.885 Q2163.03 341.112 2165.33 341.737 Q2167.62 342.339 2169.86 342.339 Q2172.87 342.339 2174.49 341.32 Q2176.11 340.278 2176.11 338.403 Q2176.11 336.667 2174.93 335.741 Q2173.77 334.816 2169.82 333.959 L2168.33 333.612 Q2164.38 332.778 2162.62 331.066 Q2160.86 329.329 2160.86 326.32 Q2160.86 322.663 2163.45 320.672 Q2166.04 318.681 2170.81 318.681 Q2173.17 318.681 2175.26 319.029 Q2177.34 319.376 2179.1 320.07 Z" fill="#000000" fill-rule="evenodd" fill-opacity="1" /><path clip-path="url(#clip800)" d="M 0 0 M2184.79 309.214 L2189.08 309.214 L2189.08 330.487 L2201.78 319.306 L2207.22 319.306 L2193.47 331.436 L2207.8 345.232 L2202.25 345.232 L2189.08 332.57 L2189.08 345.232 L2184.79 345.232 L2184.79 309.214 Z" fill="#000000" fill-rule="evenodd" fill-opacity="1" /><path clip-path="url(#clip800)" d="M 0 0 M2221.37 347.64 Q2219.56 352.269 2217.85 353.681 Q2216.14 355.093 2213.27 355.093 L2209.86 355.093 L2209.86 351.528 L2212.36 351.528 Q2214.12 351.528 2215.09 350.695 Q2216.07 349.862 2217.25 346.76 L2218.01 344.815 L2207.52 319.306 L2212.04 319.306 L2220.14 339.584 L2228.24 319.306 L2232.76 319.306 L2221.37 347.64 Z" fill="#000000" fill-rule="evenodd" fill-opacity="1" /></svg>
